<?xml version="1.0" encoding="UTF-8"?>
<svg version="1.1" xmlns="http://www.w3.org/2000/svg" width="2000" height="1500">
<path d="M0 0 C660 0 1320 0 2000 0 C2000 495 2000 990 2000 1500 C1340 1500 680 1500 0 1500 C0 1005 0 510 0 0 Z " fill="#FEFEFE" transform="translate(0,0)"/>
<path d="M0 0 C1.32226089 0.00332336 1.32226089 0.00332336 2.67123413 0.00671387 C51.81241559 0.151304 101.67696449 6.43360777 148.40380859 22.20751953 C150.38101844 22.8741582 152.36087682 23.53295752 154.34228516 24.18701172 C197.22439272 38.35304725 237.71308643 57.33522583 275.3125 82.375 C276.01242065 82.84099609 276.71234131 83.30699219 277.43347168 83.78710938 C286.203867 89.64471105 294.76184106 95.69476343 303.125 102.125 C304.12261353 102.88659424 304.12261353 102.88659424 305.14038086 103.66357422 C311.62283571 108.63654184 317.97255738 113.75956122 324.1875 119.0625 C324.94426025 119.70602417 324.94426025 119.70602417 325.71630859 120.36254883 C336.26681721 129.45673918 346.30189471 139.11519551 356.14697266 148.96166992 C357.88295956 150.69544943 359.6268511 152.42101538 361.37109375 154.14648438 C367.35434053 160.10059282 372.99185937 166.11923045 378.21923828 172.7578125 C380.13226121 175.1340193 382.15168181 177.34948527 384.25 179.5625 C391.5227515 187.5485161 397.74566879 196.42429611 404.125 205.125 C404.61178223 205.78612793 405.09856445 206.44725586 405.60009766 207.12841797 C440.3956928 254.50938123 466.33017326 308.54687443 482.125 365.125 C482.44694336 366.25663574 482.44694336 366.25663574 482.77539062 367.41113281 C490.10612617 393.31232684 494.75626315 420.15096128 497.8125 446.875 C497.93189941 447.90222168 498.05129883 448.92944336 498.17431641 449.98779297 C499.95521163 466.46429536 500.29275672 482.99475256 500.25537109 499.55371094 C500.24997635 502.38742348 500.25537827 505.22097947 500.26171875 508.0546875 C500.26949879 523.9659829 499.32939253 539.65522131 497.50537109 555.46166992 C497.2498105 557.68915173 497.0054823 559.9176844 496.76171875 562.14648438 C495.83386893 570.40746923 494.57291919 578.48163053 492.86132812 586.62084961 C492.17303896 589.89638489 491.54743117 593.17573551 490.94921875 596.46875 C484.0172676 634.27470834 472.20575265 671.18980111 456.125 706.125 C455.62145996 707.22408691 455.11791992 708.32317383 454.59912109 709.45556641 C444.0541154 732.30037573 431.93929274 754.09932319 418.125 775.125 C417.68510742 775.79515137 417.24521484 776.46530273 416.79199219 777.15576172 C406.48456045 792.74081534 395.16674863 807.78897743 382.91308594 821.89697266 C381.10521657 823.98024129 379.32132814 826.08009451 377.55859375 828.20166016 C370.1420979 837.0803403 362.20161543 845.32777607 353.98730469 853.46850586 C351.85805061 855.57930246 349.73710919 857.69819401 347.6171875 859.81835938 C346.24005672 861.19057941 344.86246884 862.5623409 343.484375 863.93359375 C342.863349 864.55350693 342.242323 865.1734201 341.60247803 865.81211853 C337.264529 870.10404359 332.74987218 874.14556505 328.125 878.125 C327.16078125 878.970625 326.1965625 879.81625 325.203125 880.6875 C315.55464328 889.0033185 305.3870766 896.58678151 295.125 904.125 C294.46822266 904.60888184 293.81144531 905.09276367 293.13476562 905.59130859 C252.58976357 935.36448983 207.67199127 957.79505186 160.17333984 974.07910156 C157.50264855 974.99542717 154.83842582 975.9278211 152.17578125 976.8671875 C122.48366266 987.21710471 90.93918747 993.56109122 59.71289062 997.00537109 C57.49268058 997.25080914 55.27369741 997.50567915 53.0546875 997.76171875 C36.57560946 999.63741301 20.26485572 1000.33287579 3.6875 1000.3125 C2.20592911 1000.31109512 2.20592911 1000.31109512 0.69442749 1000.30966187 C-88.87546445 1000.12662511 -175.6718867 976.88139082 -331.46875 874.3203125 C-332.770954 873.13226275 -334.0804259 871.95116565 -335.42602539 870.8125 C-342.07550675 865.15684389 -348.2062405 858.97984369 -354.37426758 852.81103516 C-356.29944702 850.88803818 -358.23249031 848.97319426 -360.16601562 847.05859375 C-366.48045488 840.77212459 -372.51030967 834.46411493 -378.01538086 827.44604492 C-379.90955539 825.08187041 -381.91610596 822.88500439 -384 820.6875 C-391.2727515 812.7014839 -397.49566879 803.82570389 -403.875 795.125 C-404.60517334 794.13330811 -404.60517334 794.13330811 -405.35009766 793.12158203 C-416.15181968 778.41293882 -425.88964016 763.00310632 -434.875 747.125 C-435.36726074 746.25552734 -435.85952148 745.38605469 -436.36669922 744.49023438 C-462.79833259 697.47503859 -481.73313085 646.34739778 -491.3046875 593.24121094 C-491.83466407 590.34539717 -492.39481058 587.45768525 -492.96875 584.5703125 C-506.52985922 515.33595022 -502.28924105 440.12927377 -483.875 372.125 C-483.47909668 370.65861084 -483.47909668 370.65861084 -483.07519531 369.16259766 C-463.59697653 297.98681252 -428.52564158 230.74917368 -379.875 175.125 C-379.24464844 174.39539063 -378.61429688 173.66578125 -377.96484375 172.9140625 C-376.28073158 170.97292182 -374.57904876 169.04865328 -372.875 167.125 C-372.27751953 166.4434082 -371.68003906 165.76181641 -371.06445312 165.05957031 C-364.89413263 158.09795511 -358.41417983 151.47799996 -351.83740234 144.90209961 C-350.00457731 143.06708278 -348.1799299 141.2241875 -346.35546875 139.38085938 C-340.2159924 133.21276801 -334.03116641 127.36027084 -327.1875 121.9699707 C-324.95232289 120.18669015 -322.84629021 118.31839069 -320.75 116.375 C-313.83549098 110.16428922 -306.30197655 104.69987955 -298.875 99.125 C-298.24287598 98.64627441 -297.61075195 98.16754883 -296.95947266 97.67431641 C-215.60917242 36.10896947 -112.09813512 0.57219063 0 0 Z " fill="#61777F" transform="translate(999.875,249.875)"/>
<path d="M0 0 C1.32226089 0.00332336 1.32226089 0.00332336 2.67123413 0.00671387 C51.81241559 0.151304 101.67696449 6.43360777 148.40380859 22.20751953 C150.38101844 22.8741582 152.36087682 23.53295752 154.34228516 24.18701172 C197.22439272 38.35304725 237.71308643 57.33522583 275.3125 82.375 C276.01242065 82.84099609 276.71234131 83.30699219 277.43347168 83.78710938 C286.203867 89.64471105 294.76184106 95.69476343 303.125 102.125 C304.12261353 102.88659424 304.12261353 102.88659424 305.14038086 103.66357422 C311.62283571 108.63654184 317.97255738 113.75956122 324.1875 119.0625 C324.94426025 119.70602417 324.94426025 119.70602417 325.71630859 120.36254883 C336.26681721 129.45673918 346.30189471 139.11519551 356.14697266 148.96166992 C357.88295956 150.69544943 359.6268511 152.42101538 361.37109375 154.14648438 C367.35434053 160.10059282 372.99185937 166.11923045 378.21923828 172.7578125 C380.13226121 175.1340193 382.15168181 177.34948527 384.25 179.5625 C391.5227515 187.5485161 397.74566879 196.42429611 404.125 205.125 C404.61178223 205.78612793 405.09856445 206.44725586 405.60009766 207.12841797 C440.3956928 254.50938123 466.33017326 308.54687443 482.125 365.125 C482.44694336 366.25663574 482.44694336 366.25663574 482.77539062 367.41113281 C490.10612617 393.31232684 494.75626315 420.15096128 497.8125 446.875 C497.93189941 447.90222168 498.05129883 448.92944336 498.17431641 449.98779297 C499.95521163 466.46429536 500.29275672 482.99475256 500.25537109 499.55371094 C500.24997635 502.38742348 500.25537827 505.22097947 500.26171875 508.0546875 C500.26949879 523.9659829 499.32939253 539.65522131 497.50537109 555.46166992 C497.2498105 557.68915173 497.0054823 559.9176844 496.76171875 562.14648438 C495.83386893 570.40746923 494.57291919 578.48163053 492.86132812 586.62084961 C492.17303896 589.89638489 491.54743117 593.17573551 490.94921875 596.46875 C484.0172676 634.27470834 472.20575265 671.18980111 456.125 706.125 C455.62145996 707.22408691 455.11791992 708.32317383 454.59912109 709.45556641 C444.0541154 732.30037573 431.93929274 754.09932319 418.125 775.125 C417.68510742 775.79515137 417.24521484 776.46530273 416.79199219 777.15576172 C406.48456045 792.74081534 395.16674863 807.78897743 382.91308594 821.89697266 C381.10521657 823.98024129 379.32132814 826.08009451 377.55859375 828.20166016 C370.1420979 837.0803403 362.20161543 845.32777607 353.98730469 853.46850586 C351.85805061 855.57930246 349.73710919 857.69819401 347.6171875 859.81835938 C346.24005672 861.19057941 344.86246884 862.5623409 343.484375 863.93359375 C342.863349 864.55350693 342.242323 865.1734201 341.60247803 865.81211853 C337.264529 870.10404359 332.74987218 874.14556505 328.125 878.125 C327.16078125 878.970625 326.1965625 879.81625 325.203125 880.6875 C315.55464328 889.0033185 305.3870766 896.58678151 295.125 904.125 C294.46822266 904.60888184 293.81144531 905.09276367 293.13476562 905.59130859 C252.58976357 935.36448983 207.67199127 957.79505186 160.17333984 974.07910156 C157.50264855 974.99542717 154.83842582 975.9278211 152.17578125 976.8671875 C122.48366266 987.21710471 90.93918747 993.56109122 59.71289062 997.00537109 C57.49268058 997.25080914 55.27369741 997.50567915 53.0546875 997.76171875 C36.57560946 999.63741301 20.26485572 1000.33287579 3.6875 1000.3125 C2.20592911 1000.31109512 2.20592911 1000.31109512 0.69442749 1000.30966187 C-88.87546445 1000.12662511 -175.6718867 976.88139082 -331.46875 874.3203125 C-332.770954 873.13226275 -334.0804259 871.95116565 -335.42602539 870.8125 C-342.07550675 865.15684389 -348.2062405 858.97984369 -354.37426758 852.81103516 C-356.29944702 850.88803818 -358.23249031 848.97319426 -360.16601562 847.05859375 C-366.48045488 840.77212459 -372.51030967 834.46411493 -378.01538086 827.44604492 C-379.90955539 825.08187041 -381.91610596 822.88500439 -384 820.6875 C-391.2727515 812.7014839 -397.49566879 803.82570389 -403.875 795.125 C-404.60517334 794.13330811 -404.60517334 794.13330811 -405.35009766 793.12158203 C-416.15181968 778.41293882 -425.88964016 763.00310632 -434.875 747.125 C-435.36726074 746.25552734 -435.85952148 745.38605469 -436.36669922 744.49023438 C-462.79833259 697.47503859 -481.73313085 646.34739778 -491.3046875 593.24121094 C-491.83466407 590.34539717 -492.39481058 587.45768525 -492.96875 584.5703125 C-506.52985922 515.33595022 -502.28924105 440.12927377 -483.875 372.125 C-483.47909668 370.65861084 -483.47909668 370.65861084 -483.07519531 369.16259766 C-463.59697653 297.98681252 -428.52564158 230.74917368 -379.875 175.125 C-379.24464844 174.39539063 -378.61429688 173.66578125 -377.96484375 172.9140625 C-376.28073158 170.97292182 -374.57904876 169.04865328 -372.875 167.125 C-372.27751953 166.4434082 -371.68003906 165.76181641 -371.06445312 165.05957031 C-364.89413263 158.09795511 -358.41417983 151.47799996 -351.83740234 144.90209961 C-350.00457731 143.06708278 -348.1799299 141.2241875 -346.35546875 139.38085938 C-340.2159924 133.21276801 -334.03116641 127.36027084 -327.1875 121.9699707 C-324.95232289 120.18669015 -322.84629021 118.31839069 -320.75 116.375 C-313.83549098 110.16428922 -306.30197655 104.69987955 -298.875 99.125 C-298.24287598 98.64627441 -297.61075195 98.16754883 -296.95947266 97.67431641 C-215.60917242 36.10896947 -112.09813512 0.57219063 0 0 Z M-67.625 16.625 C-68.51875336 16.75305023 -69.41250671 16.88110046 -70.33334351 17.01303101 C-117.16143479 23.80760213 -161.75659279 37.72866738 -204.875 57.125 C-205.62797363 57.45822266 -206.38094727 57.79144531 -207.15673828 58.13476562 C-220.21547191 63.92266959 -232.54269581 70.93782238 -244.875 78.125 C-245.77250977 78.64674805 -246.67001953 79.16849609 -247.59472656 79.70605469 C-259.02918973 86.38004747 -270.11941532 93.40368582 -280.875 101.125 C-281.64231445 101.67446289 -282.40962891 102.22392578 -283.20019531 102.79003906 C-292.41543199 109.41568695 -301.41482841 116.18763419 -309.984375 123.6328125 C-312.64918199 125.93030826 -315.36913717 128.12596212 -318.125 130.3125 C-329.57382887 139.65713022 -340.0372982 150.20780234 -350.5 160.625 C-351.60033569 161.71832642 -351.60033569 161.71832642 -352.72290039 162.83374023 C-357.31099397 167.43551548 -361.64533526 172.19359252 -365.875 177.125 C-366.82454817 178.20788492 -367.77501921 179.28996155 -368.7265625 180.37109375 C-376.52779296 189.31461245 -383.78992332 198.60707031 -390.875 208.125 C-391.40738281 208.83640137 -391.93976563 209.54780273 -392.48828125 210.28076172 C-406.43021251 228.97600957 -418.59142034 248.73055573 -429.875 269.125 C-430.29168945 269.8665332 -430.70837891 270.60806641 -431.13769531 271.37207031 C-459.29542936 321.63917559 -476.46741302 379.14971812 -483.875 436.125 C-484.0414502 437.34687012 -484.20790039 438.56874023 -484.37939453 439.82763672 C-485.67161043 449.49400218 -486.47245804 459.13869966 -487 468.875 C-487.04169312 469.62856781 -487.08338623 470.38213562 -487.12634277 471.15853882 C-488.93036119 504.31498821 -487.57442246 537.23893628 -482.875 570.125 C-482.71161133 571.26839844 -482.54822266 572.41179688 -482.37988281 573.58984375 C-469.82458938 659.08651845 -433.29273313 744.73545278 -376.3671875 810.234375 C-374.06969174 812.89918199 -371.87403788 815.61913717 -369.6875 818.375 C-360.64566833 829.46009257 -350.45652152 839.61836321 -340.375 849.75 C-339.74134521 850.38832764 -339.10769043 851.02665527 -338.45483398 851.68432617 C-334.6570967 855.4691104 -330.73626699 859.05758014 -326.67871094 862.56201172 C-324.49389788 864.45524036 -322.37359705 866.41356854 -320.25 868.375 C-314.59766163 873.47335728 -308.64043138 878.13342754 -302.61572266 882.77832031 C-301.00079789 884.02767866 -299.39641307 885.29062873 -297.79296875 886.5546875 C-282.54645873 898.49354643 -266.58196948 909.34052251 -249.875 919.125 C-249.02760254 919.62273926 -248.18020508 920.12047852 -247.30712891 920.63330078 C-236.70697837 926.83632304 -226.03841174 932.79528709 -214.96533203 938.11230469 C-212.73579604 939.19243962 -210.52249491 940.30225991 -208.30859375 941.4140625 C-164.61749891 963.09404734 -117.19269289 975.98148621 -69.125 983.3125 C-68.12210938 983.4674292 -67.11921875 983.6223584 -66.0859375 983.78198242 C-62.68676119 984.27850651 -59.28562519 984.7139096 -55.875 985.125 C-55.15211792 985.2126059 -54.42923584 985.30021179 -53.68444824 985.39047241 C-36.03462809 987.45219915 -18.36828599 987.56540358 -0.625 987.5625 C0.13197929 987.56326412 0.88895859 987.56402824 1.66887665 987.56481552 C26.41227053 987.58543005 50.63302535 986.55615685 75.08660889 982.46350098 C77.04284944 982.13864215 79.00210473 981.83209808 80.96142578 981.52636719 C129.66464909 973.88742196 177.15724896 957.13363612 221.125 935.125 C222.09679199 934.64305176 223.06858398 934.16110352 224.06982422 933.66455078 C255.75696506 917.88244134 284.99715658 897.81172308 312.125 875.125 C312.65174316 874.68462402 313.17848633 874.24424805 313.72119141 873.79052734 C326.20573464 863.31691725 338.07512687 852.24334847 349.625 840.75 C350.27130371 840.10836914 350.91760742 839.46673828 351.58349609 838.80566406 C355.40359513 834.97270274 359.02990647 831.02009972 362.56640625 826.92431641 C364.45788212 824.7407047 366.41496489 822.62208525 368.375 820.5 C373.42315828 814.89756758 378.04744425 809.00965799 382.64501953 803.03759766 C384.1347521 801.11239724 385.6419948 799.2020228 387.15234375 797.29296875 C400.07822913 780.83102265 411.74152682 763.29851093 422.125 745.125 C422.4972168 744.48062988 422.86943359 743.83625977 423.25292969 743.17236328 C436.0328557 720.97983615 447.01296996 698.05724654 456.125 674.125 C456.58648438 672.9174707 457.04796875 671.70994141 457.5234375 670.46582031 C467.50742736 644.06478634 474.81177712 617.22892498 480.0625 589.5 C480.27839783 588.36120392 480.27839783 588.36120392 480.49865723 587.19940186 C485.79080532 558.98255358 487.4809557 530.70512985 487.38574219 502.02832031 C487.37430333 498.55744467 487.38117117 495.08687426 487.39261246 491.61600876 C487.43725994 475.69673981 487.04307207 459.94562423 485.125 444.125 C484.99127991 443.00212585 484.99127991 443.00212585 484.8548584 441.85656738 C484.26759514 437.01804641 483.5959319 432.19527109 482.875 427.375 C482.76895447 426.65786835 482.66290894 425.94073669 482.5536499 425.20187378 C480.64375002 412.40139491 478.10076177 399.83071056 474.92089844 387.28027344 C474.10320547 384.03859741 473.31996124 380.78978049 472.5390625 377.5390625 C461.99646718 334.42967735 444.49005196 293.37538457 422.125 255.125 C421.60615234 254.23329102 421.08730469 253.34158203 420.55273438 252.42285156 C413.87585132 240.98222031 406.85028637 229.88611783 399.125 219.125 C398.30080566 217.97402832 398.30080566 217.97402832 397.45996094 216.79980469 C390.83431305 207.58456801 384.06236581 198.58517159 376.6171875 190.015625 C374.31969174 187.35081801 372.12403788 184.63086283 369.9375 181.875 C360.74428589 170.6080058 350.37444047 160.29710173 340.125 150 C339.1030957 148.97108643 339.1030957 148.97108643 338.06054688 147.92138672 C333.57785117 143.45293222 328.9194914 139.25449993 324.125 135.125 C322.96857619 134.10323047 321.81357979 133.07984268 320.66015625 132.0546875 C311.47858761 123.95168058 301.95485289 116.42372075 292.125 109.125 C291.06007324 108.32860107 291.06007324 108.32860107 289.97363281 107.51611328 C243.15286078 72.59694792 190.88730211 47.84978422 135.125 31.125 C133.96806641 30.77711426 132.81113281 30.42922852 131.61914062 30.07080078 C113.70739737 24.77434614 95.51920513 21.23682974 77.125 18.125 C76.12065918 17.95484375 75.11631836 17.7846875 74.08154297 17.609375 C50.85680004 13.77098472 27.50737068 12.80274775 3.99975586 12.91918945 C0.1657856 12.9376043 -3.66794286 12.93969691 -7.50195312 12.93945312 C-27.77530652 12.96605836 -47.55420515 13.71831886 -67.625 16.625 Z " fill="#647A81" transform="translate(999.875,249.875)"/>
<path d="M0 0 C3.38708449 1.12902816 3.87467971 1.81729727 5.8984375 4.62109375 C6.73012451 5.76155151 6.73012451 5.76155151 7.57861328 6.92504883 C8.1714209 7.75415771 8.76422852 8.5832666 9.375 9.4375 C10.00003418 10.30076904 10.62506836 11.16403809 11.26904297 12.0534668 C12.56440368 13.84378545 13.856861 15.63620821 15.14648438 17.43066406 C16.78548973 19.70264672 18.44152726 21.96010018 20.109375 24.2109375 C103.40350993 137.09819192 103.40350993 137.09819192 95.27294922 196.44433594 C91.6973595 218.35588284 82.88138355 239.45619162 68 256 C67.37738281 256.76441406 66.75476562 257.52882813 66.11328125 258.31640625 C53.10717247 273.99462962 32.33134647 285.80859739 12 288 C-1.39771033 288.70565759 -14.41169283 289.15281373 -27 284 C-27.96679688 283.61457031 -28.93359375 283.22914063 -29.9296875 282.83203125 C-49.97818284 274.25171953 -65.23741927 260.12687563 -77 242 C-75.61013153 238.7405115 -74.08784584 237.04511325 -71.3125 234.875 C-59.55801797 224.8666548 -52.06371211 208.16529956 -50.82568359 192.8425293 C-49.40890113 167.63152937 -59.60840115 145.49622872 -74.12792969 125.19873047 C-75.359375 123.3828125 -75.359375 123.3828125 -77 120 C-75.37451206 113.57667445 -71.9431265 107.91512691 -68.8125 102.125 C-68.19536133 100.98184326 -67.57822266 99.83868652 -66.94238281 98.66088867 C-60.47800007 86.78571723 -53.35270331 75.3439853 -46 64 C-45.5364209 63.28312012 -45.0728418 62.56624023 -44.59521484 61.82763672 C-41.79033594 57.50986884 -38.91871289 53.24153689 -36 49 C-35.48646973 48.25363281 -34.97293945 47.50726563 -34.44384766 46.73828125 C-23.45977246 30.82434554 -12.33772096 14.9048865 0 0 Z " fill="#FEFEFE" transform="translate(1016,464)"/>
<path d="M0 0 C3.81920644 -0.00217977 7.63811993 -0.02038898 11.45727539 -0.03930664 C33.28836381 -0.09061841 54.90238924 1.04758031 76.47485352 4.49780273 C77.16414948 4.60579193 77.85344543 4.71378113 78.56362915 4.82504272 C91.0885323 6.79015037 103.47409196 9.15570599 115.78735352 12.18530273 C117.4330835 12.58458984 117.4330835 12.58458984 119.11206055 12.99194336 C189.75416521 30.3416051 258.73870059 62.75490909 313.89672852 110.69311523 C316.56153551 112.99061099 319.28149068 115.18626486 322.03735352 117.37280273 C333.30434772 126.56601684 343.61525179 136.93586227 353.91235352 147.18530273 C354.5982959 147.86657227 355.28423828 148.5478418 355.9909668 149.24975586 C360.45942129 153.73245157 364.65785358 158.39081134 368.78735352 163.18530273 C369.80912304 164.34172655 370.83251084 165.49672294 371.85766602 166.65014648 C379.96067294 175.83171513 387.48863277 185.35544985 394.78735352 195.18530273 C395.31828613 195.89525391 395.84921875 196.60520508 396.39624023 197.33666992 C413.36057321 220.08300876 428.43087421 244.41171638 440.72729492 270.00024414 C441.89647177 272.41022406 443.09737072 274.80310195 444.29907227 277.19702148 C466.99005324 322.89083056 480.24817392 372.09211534 487.53735352 422.43530273 C487.64444641 423.169021 487.75153931 423.90273926 487.86187744 424.65869141 C488.1714668 426.7969299 488.47303766 428.93614201 488.77172852 431.07592773 C488.94414063 432.3034375 489.11655273 433.53094727 489.29418945 434.7956543 C490.62050395 445.71618133 490.94550759 456.64830176 490.95532227 467.63842773 C490.95855484 468.99102815 490.9619202 470.34362825 490.96540833 471.69622803 C490.97134208 474.51648768 490.97325457 477.33671699 490.97265625 480.15698242 C490.97257559 482.98777744 490.97943128 485.81840854 490.99316406 488.64916992 C491.10180616 511.42302404 490.57532053 534.1472414 486.97485352 556.68530273 C486.80526123 557.78366455 486.63566895 558.88202637 486.4609375 560.01367188 C482.41996933 585.61133528 476.96885666 610.59350138 468.78735352 635.18530273 C468.44075684 636.24362305 468.09416016 637.30194336 467.73706055 638.39233398 C450.4030273 691.14873677 424.90170743 740.28443868 390.78735352 784.18530273 C389.87817801 785.37125437 388.96932169 786.55745078 388.06079102 787.74389648 C374.38541149 805.49158773 359.142472 821.87730589 343.34985352 837.74780273 C342.71200928 838.39031982 342.07416504 839.03283691 341.41699219 839.69482422 C337.03709987 844.05989456 332.46882416 848.14801185 327.78735352 852.18530273 C326.63099447 853.20714556 325.47599727 854.23053202 324.32250977 855.25561523 C315.14094112 863.35862216 305.6172064 870.88658199 295.78735352 878.18530273 C295.07740234 878.71623535 294.36745117 879.24716797 293.63598633 879.79418945 C224.1249219 931.63588807 142.77196094 961.3634231 57.16235352 972.16967773 C56.46532822 972.25798355 55.76830292 972.34628937 55.05015564 972.43727112 C52.96361239 972.6964462 50.87580264 972.94199814 48.78735352 973.18530273 C48.05566956 973.27708801 47.3239856 973.36887329 46.57012939 973.46343994 C38.98045013 974.33738878 31.40359074 974.36768377 23.77172852 974.38842773 C23.05709694 974.39125511 22.34246536 974.39408249 21.60617828 974.39699554 C17.80442451 974.41192357 14.00270786 974.42118637 10.20092773 974.42553711 C7.12756138 974.42987088 4.05448385 974.44357028 0.98120117 974.46655273 C-25.73359988 974.66203823 -51.90149388 973.02663278 -78.27514648 968.43530273 C-79.01548126 968.30902496 -79.75581604 968.18274719 -80.51858521 968.05264282 C-122.448027 960.86782794 -162.47321695 947.61180128 -201.21264648 930.18530273 C-202.34210693 929.68546875 -202.34210693 929.68546875 -203.49438477 929.17553711 C-216.55450684 923.38701776 -228.87382397 916.36352188 -241.21264648 909.18530273 C-242.08888672 908.67950684 -242.96512695 908.17371094 -243.86791992 907.65258789 C-266.6023842 894.49578768 -288.12443007 879.11069359 -308.21264648 862.18530273 C-308.72972168 861.75314453 -309.24679687 861.32098633 -309.77954102 860.87573242 C-322.66763927 850.08940896 -334.86457286 838.59986828 -346.77514648 826.74780273 C-347.41758301 826.11003906 -348.06001953 825.47227539 -348.72192383 824.81518555 C-353.08707738 820.43521168 -357.17527943 815.86686171 -361.21264648 811.18530273 C-362.23448931 810.02894369 -363.25787577 808.87394649 -364.28295898 807.72045898 C-372.38596591 798.53889034 -379.91392574 789.01515562 -387.21264648 779.18530273 C-387.7435791 778.47535156 -388.27451172 777.76540039 -388.8215332 777.03393555 C-422.50053841 731.87601127 -445.78317683 682.19056556 -463.03051758 628.81640625 C-463.94156531 626.01797318 -464.88126538 623.23504162 -465.84545898 620.45483398 C-490.98998464 545.12917345 -490.88460877 455.02412934 -471.95239258 378.2175293 C-471.24171231 375.30444383 -470.57530894 372.38463935 -469.91967773 369.45874023 C-463.34891675 340.83232959 -453.10100201 312.99936638 -441.21264648 286.18530273 C-440.78773926 285.22640137 -440.36283203 284.2675 -439.92504883 283.27954102 C-433.56091301 269.09077211 -426.05704874 255.60138617 -418.21264648 242.18530273 C-417.69379883 241.29359375 -417.17495117 240.40188477 -416.64038086 239.4831543 C-409.96349781 228.04252304 -402.93793285 216.94642057 -395.21264648 206.18530273 C-394.66318359 205.41798828 -394.1137207 204.65067383 -393.54760742 203.86010742 C-386.92303982 194.64637326 -380.1519758 185.64859193 -372.70874023 177.07983398 C-370.39102962 174.39216018 -368.17184456 171.64972769 -365.96264648 168.87280273 C-356.94676219 157.83033914 -346.82446598 147.71587381 -336.77514648 137.62280273 C-336.04239502 136.88537842 -335.30964355 136.1479541 -334.5546875 135.38818359 C-329.93546878 130.78259862 -325.1572534 126.43699453 -320.21264648 122.18530273 C-319.05613921 121.16362767 -317.90114424 120.14023771 -316.74780273 119.11499023 C-307.56623409 111.01198331 -298.04249937 103.48402348 -288.21264648 96.18530273 C-287.50269531 95.65437012 -286.79274414 95.1234375 -286.0612793 94.57641602 C-266.74393464 80.169444 -246.31468619 67.78527758 -225.21264648 56.18530273 C-224.46740723 55.76941895 -223.72216797 55.35353516 -222.9543457 54.92504883 C-177.19454976 29.39837602 -124.97232552 12.88723684 -73.21264648 5.18530273 C-72.06280273 5.01015137 -70.91295898 4.835 -69.72827148 4.65454102 C-65.97502621 4.08789204 -62.21960602 3.53924977 -58.46264648 2.99780273 C-57.32730469 2.83054687 -56.19196289 2.66329102 -55.0222168 2.4909668 C-36.76391481 -0.03838952 -18.40026703 -0.00116998 0 0 Z M-109.14819336 20.39379883 C-112.31275658 21.21115972 -115.48665203 21.9774521 -118.66577148 22.73608398 C-192.01109553 40.52544482 -261.02445981 79.18905048 -316.67504883 129.88256836 C-318.27390252 131.33344271 -319.87946447 132.77699132 -321.49438477 134.20996094 C-327.84398886 139.85075669 -333.90847336 145.72998413 -339.90014648 151.74780273 C-340.79797852 152.64176758 -341.69581055 153.53573242 -342.62084961 154.45678711 C-347.69491883 159.53829087 -352.55105967 164.72492549 -357.21264648 170.18530273 C-358.13798372 171.23372143 -359.0649857 172.28067392 -359.99389648 173.32592773 C-368.64913586 183.17793316 -376.46527988 193.61203421 -384.21264648 204.18530273 C-384.93629395 205.16829346 -384.93629395 205.16829346 -385.67456055 206.17114258 C-402.09118195 228.52504833 -415.71793829 252.45702264 -428.21264648 277.18530273 C-428.81955322 278.38292236 -428.81955322 278.38292236 -429.4387207 279.60473633 C-444.14837172 308.89231015 -454.64733869 340.14085944 -462.58764648 371.87280273 C-462.79906281 372.71588989 -463.01047913 373.55897705 -463.228302 374.4276123 C-467.73640199 392.51652079 -470.7664501 410.47652738 -472.83764648 428.99780273 C-473.05589971 430.90345865 -473.27464745 432.809058 -473.49389648 434.71459961 C-473.70526974 436.56546135 -473.91622206 438.41637123 -474.12670898 440.26733398 C-474.22150543 441.10093948 -474.31630188 441.93454498 -474.41397095 442.79341125 C-474.68923563 445.2565101 -474.9542715 447.72037592 -475.21264648 450.18530273 C-475.35252991 451.51365898 -475.35252991 451.51365898 -475.49523926 452.86885071 C-476.12610387 459.25727309 -476.38536731 465.58399373 -476.41577148 472.00170898 C-476.42283112 473.00357239 -476.42989075 474.00543579 -476.43716431 475.03765869 C-476.68134377 520.01091772 -472.78061993 563.58743119 -461.21264648 607.18530273 C-460.92429932 608.31250732 -460.63595215 609.43971191 -460.33886719 610.60107422 C-457.80874484 620.36380109 -454.84386346 629.93442595 -451.65014648 639.49780273 C-451.25956055 640.66975693 -451.25956055 640.66975693 -450.86108398 641.86538696 C-446.02624581 656.30444195 -440.56013755 670.33402043 -434.21264648 684.18530273 C-433.49359131 685.75562256 -433.49359131 685.75562256 -432.76000977 687.35766602 C-412.45132092 731.3296936 -386.15649217 771.81450641 -353.51806641 807.64477539 C-352.06073197 809.25072923 -350.61053209 810.86321228 -349.17041016 812.48461914 C-343.68946974 818.64980192 -337.99585725 824.55392767 -332.15014648 830.37280273 C-331.30387695 831.22293945 -330.45760742 832.07307617 -329.58569336 832.94897461 C-324.62332123 837.90369466 -319.5447152 842.6329468 -314.21264648 847.18530273 C-313.12953795 848.13459583 -312.04745743 849.08506351 -310.96655273 850.03686523 C-302.0222977 857.83788008 -292.71314119 865.07722765 -283.21264648 872.18530273 C-282.57182129 872.6688623 -281.93099609 873.15242188 -281.27075195 873.65063477 C-271.55091101 880.9803924 -261.5358211 887.73527417 -251.21264648 894.18530273 C-250.46450684 894.65548828 -249.71636719 895.12567383 -248.94555664 895.61010742 C-234.47854064 904.6546715 -219.45383251 912.53256576 -204.21264648 920.18530273 C-203.41793945 920.5873291 -202.62323242 920.98935547 -201.80444336 921.40356445 C-140.00189272 952.46235322 -68.53498115 967.46712135 0.34985352 967.37280273 C1.24230774 967.37186615 2.13476196 967.37092957 3.05426025 967.3699646 C99.55107728 967.15236386 194.51031184 938.64498734 324.24682617 844.49072266 C325.85278001 843.03338822 327.46526306 841.58318834 329.08666992 840.14306641 C335.2518527 834.66212599 341.15597845 828.9685135 346.97485352 823.12280273 C347.82499023 822.2765332 348.67512695 821.43026367 349.55102539 820.55834961 C354.50574544 815.59597748 359.23499758 810.51737145 363.78735352 805.18530273 C364.73664661 804.1021942 365.6871143 803.02011368 366.63891602 801.93920898 C374.43993087 792.99495395 381.67927843 783.68579744 388.78735352 774.18530273 C389.27091309 773.54447754 389.75447266 772.90365234 390.25268555 772.2434082 C397.58124178 762.5251604 404.33482653 752.50490101 410.78735352 742.18530273 C411.17101074 741.57251465 411.55466797 740.95972656 411.94995117 740.32836914 C437.73440279 698.87079254 457.84030925 652.97971544 469.24291992 605.42504883 C469.80940539 603.09458352 470.41141919 600.77521057 471.01782227 598.45483398 C479.70023547 564.55764974 483.99742906 528.86766485 483.91772461 493.91113281 C483.9124089 491.15155422 483.9176781 488.39214175 483.92407227 485.63256836 C483.93442849 466.25930893 482.96064974 447.15905508 480.53735352 427.93530273 C480.42753143 427.04932404 480.31770935 426.16334534 480.20455933 425.2505188 C478.39516466 410.74004907 476.1165967 396.43327189 472.78735352 382.18530273 C472.56998535 381.23091309 472.35261719 380.27652344 472.12866211 379.29321289 C464.34071314 345.37977305 452.76629458 312.58520084 437.78735352 281.18530273 C437.34311035 280.25298828 436.89886719 279.32067383 436.44116211 278.36010742 C416.92505448 237.72107713 391.45030194 200.05189126 361.09008789 166.72290039 C359.63921354 165.1240467 358.19566493 163.51848475 356.76269531 161.90356445 C351.12189956 155.55396035 345.24267212 149.48947586 339.22485352 143.49780273 C338.33088867 142.5999707 337.43692383 141.70213867 336.51586914 140.77709961 C331.43472309 135.70338757 326.25394031 130.8393775 320.78735352 126.18530273 C319.65758277 125.20061665 318.52864681 124.21497177 317.40063477 123.22827148 C309.74275607 116.58433992 301.93033724 110.22736599 293.78735352 104.18530273 C292.79807861 103.44908691 292.79807861 103.44908691 291.78881836 102.69799805 C240.6895872 64.82486666 181.79268741 35.54225532 119.65307617 21.08544922 C117.09708154 20.4902773 114.54444445 19.8804775 111.99560547 19.25537109 C101.63657087 16.72257979 91.25396874 14.7386661 80.72485352 13.06030273 C79.92397308 12.93112457 79.12309265 12.80194641 78.29794312 12.66885376 C64.82873185 10.50837081 51.41231471 8.95098152 37.78735352 8.18530273 C36.44528453 8.10094837 35.10324577 8.01611243 33.76123047 7.9309082 C22.95517506 7.26313422 12.17623047 6.94337497 1.34985352 6.93530273 C0.5168573 6.93462799 -0.31613892 6.93395325 -1.17437744 6.93325806 C-37.47487914 6.97920588 -74.01250523 11.17722736 -109.14819336 20.39379883 Z " fill="#F9FAFA" transform="translate(996.212646484375,262.814697265625)"/>
<path d="M0 0 C3.28779067 1.09593022 3.71620549 1.59955031 5.64453125 4.296875 C6.14927979 4.99723877 6.65402832 5.69760254 7.17407227 6.41918945 C7.98509399 7.57294067 7.98509399 7.57294067 8.8125 8.75 C9.66702759 9.95305786 9.66702759 9.95305786 10.53881836 11.18041992 C12.3726136 13.77785864 14.18929981 16.38641495 16 19 C16.58845703 19.84836426 17.17691406 20.69672852 17.78320312 21.57080078 C54.26269263 74.4822198 54.26269263 74.4822198 49.6953125 106.10986328 C46.42733468 121.74530308 36.53085587 134.91619962 23.35546875 143.59765625 C13.10642531 149.6994914 1.24096115 150.58884965 -10.36328125 148.3515625 C-17.49939094 146.18573933 -23.24733488 142.69851182 -29 138 C-29.93779297 137.24976563 -29.93779297 137.24976563 -30.89453125 136.484375 C-41.16354952 127.30484625 -47.54297822 112.27593417 -48.41015625 98.78515625 C-48.84802446 87.46509015 -47.95760786 78.29934029 -43 68 C-42.55793213 67.05398926 -42.55793213 67.05398926 -42.10693359 66.08886719 C-39.8712386 61.31984958 -37.47847414 56.64684424 -35 52 C-34.39414062 50.85917969 -33.78828125 49.71835937 -33.1640625 48.54296875 C-23.68962834 31.37305537 -11.72166493 15.67398011 0 0 Z " fill="#FEFEFE" transform="translate(906,556)"/>
<path d="M0 0 C4.16432364 1.38810788 5.81104588 4.33104619 8.3125 7.75 C8.83376465 8.45592285 9.3550293 9.1618457 9.89208984 9.88916016 C20.61870467 24.56885456 30.89946131 39.69243666 39 56 C39.33032227 56.65742187 39.66064453 57.31484375 40.00097656 57.9921875 C46.51083562 71.40236251 47.47779329 86.57129952 42.81811523 100.77685547 C38.02952312 113.78936509 30.0403261 122.38548964 18 129 C17.01 129.33 16.02 129.66 15 130 C14.01 127.03 14.01 127.03 13 124 C13.56847656 123.5875 14.13695312 123.175 14.72265625 122.75 C25.04872919 115.02699386 32.10586448 106.78243187 35 94 C35.0288557 92.33358315 35.03406443 90.66631851 35 89 C34.30777344 90.48886719 34.30777344 90.48886719 33.6015625 92.0078125 C30.14461803 99.27252328 26.48974982 106.18912785 21.8125 112.75 C21.40918457 113.32121582 21.00586914 113.89243164 20.59033203 114.48095703 C18.08105708 117.89803827 15.41662531 120.49973423 12 123 C11.73485596 122.4237085 11.46971191 121.84741699 11.1965332 121.25366211 C0.00274319 97.0604782 -12.47619427 71.23764356 -28.96875 50.15625 C-31 47 -31 47 -30.76855469 44.55566406 C-30.01210985 42.0402687 -29.12517466 40.17170441 -27.734375 37.953125 C-27.26265869 37.19862061 -26.79094238 36.44411621 -26.30493164 35.66674805 C-25.7918042 34.86922119 -25.27867676 34.07169434 -24.75 33.25 C-23.95613892 32.00440308 -23.95613892 32.00440308 -23.14624023 30.73364258 C-16.160585 19.94135299 -8.27417588 9.82844096 0 0 Z " fill="#FDFDFD" transform="translate(1097,469)"/>
<path d="M0 0 C0.92651367 0.01353516 1.85302734 0.02707031 2.80761719 0.04101562 C13.18613929 0.35607136 19.97452933 3.0303967 27.58203125 10.20703125 C33.51763941 17.07922452 35.71782071 24.56275735 35.67602539 33.4597168 C35.67617142 34.26970123 35.67631744 35.07968567 35.6764679 35.91421509 C35.675771 38.59257685 35.66798903 41.27086913 35.66015625 43.94921875 C35.65829128 45.80581118 35.65686775 47.6624041 35.65586853 49.51899719 C35.6520496 54.40655881 35.64222461 59.29409074 35.63116455 64.18164062 C35.62093704 69.16861571 35.61636803 74.15559558 35.61132812 79.14257812 C35.60060181 88.92839847 35.58353284 98.71419676 35.5625 108.5 C33.17504883 108.62304688 33.17504883 108.62304688 30.5625 108.5 C28.76171875 106.53125 28.76171875 106.53125 27.25 104 C26.73824219 103.1646875 26.22648438 102.329375 25.69921875 101.46875 C25.32410156 100.8190625 24.94898438 100.169375 24.5625 99.5 C23.94375 100.08007812 23.94375 100.08007812 23.3125 100.671875 C13.35968885 109.64717791 3.81125769 111.21772974 -9.28076172 110.67480469 C-16.60289732 110.08134203 -22.40422292 106.50404658 -27.6796875 101.5703125 C-35.21405791 92.69649846 -36.24168184 82.67812761 -35.4375 71.5 C-33.42604281 63.1027721 -27.46285201 56.23900073 -20.3125 51.625 C-14.70444754 48.29740041 -10.03161696 47.21093918 -3.51171875 47.3046875 C-2.76412796 47.3075174 -2.01653717 47.31034729 -1.24629211 47.31326294 C1.1276388 47.32440531 3.50118425 47.34949838 5.875 47.375 C7.4902289 47.38503751 9.10546376 47.39416201 10.72070312 47.40234375 C14.66811594 47.42432511 18.61524274 47.45881343 22.5625 47.5 C22.53946443 43.99859347 22.46184098 40.50035938 22.375 37 C22.36919922 36.01773438 22.36339844 35.03546875 22.35742188 34.0234375 C22.1570692 27.3450151 21.0114011 22.61588274 16.5625 17.5 C10.62320402 12.46236781 3.01677232 12.73208032 -4.41796875 13.0546875 C-9.40155616 13.46587079 -12.97535157 14.80392262 -16.4375 18.5 C-20.52660516 23.37547154 -21.05482745 28.28157113 -21.4375 34.5 C-25.7275 34.17 -30.0175 33.84 -34.4375 33.5 C-35.26726496 25.20235043 -33.01887028 19.42861555 -28.4375 12.5 C-20.62038293 3.49714045 -11.78961039 -0.24856321 0 0 Z " fill="#FBFCFC" transform="translate(955.4375,809.5)"/>
<path d="M0 0 C7.34111801 4.83553706 12.28740075 10.89985373 14.98632812 19.28125 C15.62023964 22.47488018 15.56021573 25.53001904 15.546875 28.78515625 C15.54437744 30.03393555 15.54187988 31.28271484 15.53930664 32.56933594 C15.53020264 34.15133789 15.52109863 35.73333984 15.51171875 37.36328125 C15.49109375 42.39578125 15.47046875 47.42828125 15.44921875 52.61328125 C-3.69078125 52.61328125 -22.83078125 52.61328125 -42.55078125 52.61328125 C-43.58590281 77.92638874 -43.58590281 77.92638874 -37.55078125 88.61328125 C-31.88233067 93.8768425 -27.86503808 93.87709671 -20.42578125 93.98828125 C-19.03746094 94.04435547 -19.03746094 94.04435547 -17.62109375 94.1015625 C-11.01295599 94.18556425 -6.63114917 92.9360155 -1.55078125 88.61328125 C2.62520413 83.22491302 2.16676479 76.17790096 2.44921875 69.61328125 C4.05377435 69.75477114 5.65785642 69.90163811 7.26171875 70.05078125 C8.60169922 70.17259766 8.60169922 70.17259766 9.96875 70.296875 C12.44921875 70.61328125 12.44921875 70.61328125 15.44921875 71.61328125 C16.1520101 81.88184378 14.40234131 89.36957852 7.82421875 97.42578125 C1.40082546 104.20936482 -6.16111164 107.27711576 -15.37109375 107.8515625 C-26.24231883 108.13263881 -35.31244553 107.45331378 -43.98828125 100.17578125 C-45.19651347 99.00938192 -46.38701029 97.82404533 -47.55078125 96.61328125 C-48.66453125 95.46859375 -48.66453125 95.46859375 -49.80078125 94.30078125 C-55.3387818 85.79599469 -56.14761223 77.81140225 -56.08203125 67.828125 C-56.08585815 66.53185684 -56.08968506 65.23558868 -56.09362793 63.90003967 C-56.09948395 61.17266492 -56.09108688 58.44581857 -56.07226562 55.71850586 C-56.04945422 52.24638624 -56.06263587 48.77550236 -56.08655548 45.3034277 C-56.10459255 41.95739787 -56.09191696 38.61168977 -56.08203125 35.265625 C-56.09012817 34.03102036 -56.0982251 32.79641571 -56.10656738 31.5243988 C-56.02883175 24.32158992 -55.15982208 18.89038581 -51.55078125 12.61328125 C-50.86435547 11.41638672 -50.86435547 11.41638672 -50.1640625 10.1953125 C-39.00931399 -4.97916521 -16.58099942 -8.39693979 0 0 Z " fill="#FAFBFB" transform="translate(1145.55078125,813.38671875)"/>
<path d="M0 0 C4.29 0 8.58 0 13 0 C17.02743039 9.44897129 19.9833789 19.19438475 23 29 C23.36222656 30.17304687 23.72445312 31.34609375 24.09765625 32.5546875 C24.73798316 34.63380564 25.37731537 36.7132304 26.015625 38.79296875 C30.1501587 52.26301702 34.50621126 65.64524682 39 79 C43.5487358 65.69260219 47.8452615 52.36698356 51.63671875 38.82421875 C55.30460815 25.74233837 59.6645366 12.87230369 64 0 C66.64 0 69.28 0 72 0 C77.36490152 15.69295503 82.44130693 31.45995986 87.3125 47.3125 C87.5664856 48.1376712 87.82047119 48.96284241 88.08215332 49.8130188 C91.16657536 59.84487324 94.16423179 69.89481947 97 80 C99.31343538 73.94256739 101.39040074 67.85575737 103.1875 61.625 C106.92199917 48.68832338 110.97809568 35.84958454 115 23 C115.53222168 21.29626221 115.53222168 21.29626221 116.07519531 19.55810547 C117.04624493 16.45416524 118.02202029 13.35176272 119 10.25 C119.29052246 9.3216333 119.58104492 8.3932666 119.88037109 7.43676758 C120.14672363 6.59654053 120.41307617 5.75631348 120.6875 4.890625 C120.91824219 4.15875977 121.14898438 3.42689453 121.38671875 2.67285156 C122 1 122 1 123 0 C125.18639453 -0.07258946 127.37500389 -0.08373783 129.5625 -0.0625 C131.35880859 -0.04896484 131.35880859 -0.04896484 133.19140625 -0.03515625 C134.11824219 -0.02355469 135.04507813 -0.01195312 136 0 C134.02978687 6.69274056 131.93635163 13.33207257 129.72192383 19.94775391 C129.40937149 20.88555695 129.09681915 21.82335999 128.77479553 22.7895813 C127.75363086 25.85238529 126.73035029 28.91447771 125.70703125 31.9765625 C124.99373961 34.11457 124.28058147 36.25262205 123.56755066 38.39071655 C121.69970456 43.99045518 119.83005668 49.58959058 117.96002197 55.18859863 C116.04842284 60.91312681 114.13854349 66.63822867 112.22851562 72.36328125 C108.48735187 83.57608025 104.74428273 94.78824217 101 106 C98.36 106 95.72 106 93 106 C84.98649176 82.33857138 84.98649176 82.33857138 81.92578125 71.21484375 C80.88669958 67.60655594 79.70840961 64.05403922 78.5 60.5 C74.77625377 49.47725426 71.73327052 38.30580078 69 27 C68.34 27 67.68 27 67 27 C66.90332031 27.77214844 66.80664062 28.54429687 66.70703125 29.33984375 C65.7640082 34.22168132 64.23025365 38.84117644 62.6875 43.5625 C62.04773036 45.54542884 61.40840484 47.52850103 60.76953125 49.51171875 C60.46225098 50.46224121 60.1549707 51.41276367 59.83837891 52.39208984 C58.50221662 56.54843392 57.22640443 60.7225126 55.953125 64.8984375 C55.06780224 67.77936484 54.16015175 70.65263473 53.24951172 73.52563477 C50.65616968 81.72436702 48.26689423 89.97176008 45.96728516 98.2578125 C45.60449463 99.55138672 45.60449463 99.55138672 45.234375 100.87109375 C45.02006836 101.64380615 44.80576172 102.41651855 44.58496094 103.21264648 C44 105 44 105 43 106 C40.32941149 106.14115161 37.67567762 106.04247107 35 106 C30.58239395 92.77054386 26.16652652 79.5405085 21.75266361 66.30980301 C19.7031736 60.16655586 17.65312479 54.02349635 15.60180664 47.88085938 C13.62291502 41.95503441 11.64548118 36.02872486 9.66906548 30.10207367 C8.91403755 27.83884032 8.15848077 25.57578333 7.40239143 23.31290436 C6.34507491 20.14819304 5.28962509 16.98286502 4.23461914 13.81738281 C3.92028931 12.87798859 3.60595947 11.93859436 3.28210449 10.97073364 C2.99464859 10.10699127 2.70719269 9.2432489 2.411026 8.35333252 C2.1612201 7.60483662 1.9114142 6.85634071 1.65403843 6.08516312 C1.02494438 4.07952608 0.50980615 2.03922459 0 0 Z " fill="#FAFBFB" transform="translate(769,812)"/>
<path d="M0 0 C0 8.91 0 17.82 0 27 C8.91 27 17.82 27 27 27 C27 30.96 27 34.92 27 39 C18.09 39 9.18 39 0 39 C0.06298352 48.15383716 0.13844892 57.30734002 0.23571491 66.46087837 C0.28038721 70.71152973 0.31965013 74.96208594 0.34643555 79.21289062 C0.37250005 83.31739652 0.41292439 87.42153566 0.46318626 91.52581406 C0.47983377 93.08939924 0.49136122 94.65304783 0.49761391 96.21670914 C0.50727838 98.41195103 0.53536356 100.60625912 0.56762695 102.80126953 C0.57873001 104.04925323 0.58983307 105.29723694 0.60127258 106.58303833 C1.1976799 111.69405115 2.78638579 114.92683373 6.6328125 118.328125 C10.84547842 120.41979671 14.23607195 120.66351151 18.875 120.75 C20.050625 120.79447266 20.050625 120.79447266 21.25 120.83984375 C23.16612807 120.909946 25.08306537 120.95730658 27 121 C27 125.29 27 129.58 27 134 C6.05022779 134.69404153 6.05022779 134.69404153 -3.3125 126.8125 C-8.76030393 121.62693508 -12.81885148 115.66097138 -13.12025452 107.90583801 C-13.11803391 106.63342758 -13.11581329 105.36101715 -13.11352539 104.05004883 C-13.11367142 103.34735367 -13.11381744 102.64465851 -13.1139679 101.92066956 C-13.11327157 99.59942532 -13.10549226 97.27826146 -13.09765625 94.95703125 C-13.09579108 93.3470616 -13.09436764 91.73709139 -13.09336853 90.12712097 C-13.08955118 85.89057853 -13.07972755 81.6540704 -13.06866455 77.4175415 C-13.05843364 73.09412093 -13.05386731 68.77069481 -13.04882812 64.44726562 C-13.03810459 55.96482626 -13.0205141 47.48242135 -13 39 C-19.27 39 -25.54 39 -32 39 C-32 35.04 -32 31.08 -32 27 C-25.73 27 -19.46 27 -13 27 C-13 18.42 -13 9.84 -13 1 C-8 0 -8 0 0 0 Z " fill="#FBFCFC" transform="translate(1040,785)"/>
<path d="M0 0 C0.66 0.66 1.32 1.32 2 2 C2.66 1.34 3.32 0.68 4 0 C4.25394531 0.56589844 4.50789062 1.13179687 4.76953125 1.71484375 C5.11371094 2.44832031 5.45789063 3.18179688 5.8125 3.9375 C6.14894531 4.66839844 6.48539063 5.39929688 6.83203125 6.15234375 C7.93600134 8.33029489 7.93600134 8.33029489 11 9 C13.66928174 14.33856348 11.73321138 21.4742965 10.375 27 C10.20186279 27.7233252 10.02872559 28.44665039 9.8503418 29.19189453 C7.88149978 37.04174844 4.98326639 44.49134798 2 52 C0.66666667 55 0.66666667 55 2 58 C-2 58 -2 58 -4.625 55.8125 C-6.83638989 53.19374882 -7.98288042 51.23628956 -9 48 C-9.7425 48.7425 -10.485 49.485 -11.25 50.25 C-12.1575 51.1575 -13.065 52.065 -14 53 C-14.66 53.721875 -15.32 54.44375 -16 55.1875 C-19.86033637 58.68592983 -23.80029415 59.52052624 -29.00390625 59.3828125 C-32.73281491 58.66767933 -34.42850652 56.75517159 -37 54 C-40.49658572 47.16249847 -39.90918693 38.28461147 -38.34765625 30.92578125 C-35.51183408 22.39397292 -30.44483498 15.20456701 -24 9 C-23.34 9.33 -22.68 9.66 -22 10 C-22 10.66 -22 11.32 -22 12 C-21.35933594 11.50628906 -20.71867188 11.01257813 -20.05859375 10.50390625 C-11.277666 4 -11.277666 4 -5 4 C-2.5625 4.4375 -2.5625 4.4375 -1 5 C-0.67 3.35 -0.34 1.7 0 0 Z " fill="#F3F5F5" transform="translate(935,978)"/>
<path d="M0 0 C0 4.62 0 9.24 0 14 C-1.134375 14.02578125 -2.26875 14.0515625 -3.4375 14.078125 C-14.94159952 14.14446176 -14.94159952 14.14446176 -25 19 C-31.85937232 26.69388415 -30.73169275 35.99578092 -30.70703125 45.71875 C-30.72015827 47.54579305 -30.73546557 49.37282163 -30.75285339 51.1998291 C-30.79259896 55.98709821 -30.80288709 60.77398675 -30.80688477 65.56140137 C-30.81623594 70.4551134 -30.85366188 75.34860367 -30.88867188 80.2421875 C-30.95314131 89.82811473 -30.98646865 99.41387492 -31 109 C-35.29 109 -39.58 109 -44 109 C-44 73.69 -44 38.38 -44 2 C-39 3 -39 3 -37.41796875 4.84765625 C-37.01191406 5.57855469 -36.60585937 6.30945313 -36.1875 7.0625 C-35.76855469 7.79597656 -35.34960938 8.52945313 -34.91796875 9.28515625 C-34.61503906 9.85105469 -34.31210938 10.41695312 -34 11 C-31.08724428 9.65614581 -28.7829338 8.09788886 -26.3125 6.0625 C-17.93075002 -0.23922011 -10.29272446 -0.3250334 0 0 Z " fill="#FAFBFB" transform="translate(1231,810)"/>
<path d="M0 0 C1.05055321 0.00848969 1.05055321 0.00848969 2.12232971 0.01715088 C4.3335857 0.0393328 6.54314998 0.08948694 8.75390625 0.140625 C10.26364828 0.16071385 11.773416 0.17896042 13.28320312 0.1953125 C16.96147624 0.23913553 20.63877581 0.30803159 24.31640625 0.390625 C24.43337125 4.72372828 24.50391515 9.0564208 24.56640625 13.390625 C24.61667969 15.22173828 24.61667969 15.22173828 24.66796875 17.08984375 C24.7522351 24.88448109 24.49510572 31.03451819 18.83276367 36.93725586 C13.36476266 41.75420371 8.53223875 41.65596918 1.62890625 41.765625 C0.31889648 41.82169922 0.31889648 41.82169922 -1.01757812 41.87890625 C-7.43762184 41.96521005 -11.77396066 40.61556887 -16.68359375 36.390625 C-21.49422988 30.62649207 -21.54235743 23.40247073 -21.1953125 16.1875 C-20.48539655 10.92003201 -18.84752933 7.68266017 -14.68359375 4.390625 C-9.51636185 0.98217762 -6.33791676 -0.10181392 0 0 Z " fill="#61777F" transform="translate(953.68359375,866.609375)"/>
<path d="M0 0 C4.05390971 2.55077465 7.10679413 6.08858827 9.25 10.375 C9.25 17.635 9.25 24.895 9.25 32.375 C-5.6 32.375 -20.45 32.375 -35.75 32.375 C-35.75 11.375 -35.75 11.375 -30.75 3.375 C-22.9020629 -2.74639094 -9.31911079 -4.32737129 0 0 Z " fill="#627880" transform="translate(1138.75,823.625)"/>
<path d="M0 0 C4.43041256 2.13609177 7.16159481 4.40398702 9 9 C10.04545568 15.06364292 8.94354773 19.37487998 5.4453125 24.40234375 C3.54715953 26.5005723 1.74320317 27.37298213 -1 28 C0.32 26.02 1.64 24.04 3 22 C2.33613281 22.55429687 1.67226562 23.10859375 0.98828125 23.6796875 C0.10527344 24.40414062 -0.77773437 25.12859375 -1.6875 25.875 C-2.55761719 26.59429688 -3.42773438 27.31359375 -4.32421875 28.0546875 C-8.54446986 31.12284086 -11.77694679 32.29846018 -17 32 C-17.02692484 34.29160319 -17.04636124 36.58329546 -17.0625 38.875 C-17.07410156 40.15117188 -17.08570313 41.42734375 -17.09765625 42.7421875 C-17.23176569 45.88664652 -17.23176569 45.88664652 -16 48 C-14.84371094 47.96519531 -14.84371094 47.96519531 -13.6640625 47.9296875 C-12.66117188 47.91164063 -11.65828125 47.89359375 -10.625 47.875 C-9.62726563 47.85179687 -8.62953125 47.82859375 -7.6015625 47.8046875 C-5 48 -5 48 -3 50 C-8.56684346 54.82459766 -11.40432927 56.13563698 -19 56 C-19.99 56 -20.98 56 -22 56 C-26.46008295 54.74202789 -28.46397189 52.84776678 -31 49 C-34.75355818 39.50174883 -33.91556875 29.24843203 -30.3203125 19.8203125 C-24.2014624 6.74986939 -14.79508956 -1.50458538 0 0 Z " fill="#687D85" transform="translate(1128,980)"/>
<path d="M0 0 C0.66 0.66 1.32 1.32 2 2 C2.99 2 3.98 2 5 2 C5.99 4.31 6.98 6.62 8 9 C8.66 9 9.32 9 10 9 C11.06580666 23.12193825 2.48537116 36.7797123 -5.73828125 47.70703125 C-6.36283203 48.34705078 -6.36283203 48.34705078 -7 49 C-7.66 49 -8.32 49 -9 49 C-9 50.98 -9 52.96 -9 55 C-9.66 55 -10.32 55 -11 55 C-11.33 54.34 -11.66 53.68 -12 53 C-12.99 53.495 -12.99 53.495 -14 54 C-20.95714538 49.75320654 -23.77586414 45.45581418 -27 38 C-29.64 41.63 -32.28 45.26 -35 49 C-36 46 -36 46 -34.59375 42.69921875 C-33.90536252 41.35704885 -33.20675485 40.02008957 -32.5 38.6875 C-32.13632324 37.97907959 -31.77264648 37.27065918 -31.39794922 36.54077148 C-29.93565942 33.69397325 -28.45173062 30.85884063 -26.96191406 28.02636719 C-23.34133318 21.12609261 -20.20624112 14.77355386 -19 7 C-16.73392471 8.76981078 -16.05213569 9.63673196 -15.63671875 12.53125 C-15.75664257 19.54218085 -16.48975887 26.14997772 -18 33 C-18.66 33 -19.32 33 -20 33 C-20.66 31.68 -21.32 30.36 -22 29 C-22.40303244 35.44851898 -21.69090653 40.10070492 -19 46 C-18.34 46.66 -17.68 47.32 -17 48 C-17.33 47.401875 -17.66 46.80375 -18 46.1875 C-19 44 -19 44 -19 41 C-18.01 40.505 -18.01 40.505 -17 40 C-14.98688552 33.23991187 -14.82011201 26.12804557 -14.8125 19.125 C-14.8112915 18.05572266 -14.8112915 18.05572266 -14.81005859 16.96484375 C-14.8531534 12.88137172 -15.21502564 9.00650915 -16 5 C-12.0433962 8.24891857 -11.35201356 10.7332203 -10.75 15.75 C-10.60046875 16.92046875 -10.4509375 18.0909375 -10.296875 19.296875 C-10.19890625 20.18890625 -10.1009375 21.0809375 -10 22 C-8.70326398 19.46080994 -7.41252163 16.91885762 -6.125 14.375 C-5.76019531 13.66214844 -5.39539063 12.94929687 -5.01953125 12.21484375 C-2.99999073 8.21248163 -1.2918889 4.31082927 0 0 Z " fill="#809298" transform="translate(826,982)"/>
<path d="M0 0 C0.66 0.66 1.32 1.32 2 2 C2.99 2 3.98 2 5 2 C8.76275654 6.34164217 8.6911976 11.51609533 9 17 C9 15.989375 9 14.97875 9 13.9375 C9.62897631 9.2773573 12.56351321 7.12274884 15.9921875 4.1875 C16.65476562 3.795625 17.31734375 3.40375 18 3 C18.99 3.33 19.98 3.66 21 4 C18.69 6.64 16.38 9.28 14 12 C14.33 12.33 14.66 12.66 15 13 C17.05396726 12.59070014 17.05396726 12.59070014 19 12 C17.47291037 15.43595166 15.40072955 18.11912454 13 21 C20.34203726 15.33614268 23.96773408 10.72411704 27 2 C27.33 2 27.66 2 28 2 C28.33643576 7.4951174 27.61021543 11.13959885 25 16 C22.75 18.5 22.75 18.5 20 21 C12.01042954 28.27140682 9.04320697 35.2788332 5.9296875 45.55859375 C5 48 5 48 3 49 C3.66 51.31 4.32 53.62 5 56 C1.95451935 55.92917487 -0.22700227 55.77718742 -2.44140625 53.55078125 C-7.68695342 46.332282 -9.10012012 39.85689925 -8 31 C-6.96621769 26.94521653 -5.63177865 22.99444972 -4.28857422 19.03344727 C-2.16873563 12.75536664 -0.76358377 6.59578398 0 0 Z " fill="#6F838B" transform="translate(1203,980)"/>
<path d="M0 0 C-2.10903221 2.22656341 -4.29032569 3.95132873 -6.8125 5.6875 C-14.55759131 11.45723774 -19.00143605 19.33812018 -21.75 28.5 C-22.13323849 32.33238493 -22.07544423 36.15234439 -22 40 C-20.35 40 -18.7 40 -17 40 C-16.73832031 39.41734375 -16.47664062 38.8346875 -16.20703125 38.234375 C-14.93352727 35.87695015 -13.51067536 34.20657843 -11.6875 32.25 C-8.26157096 28.43704132 -5.55767898 24.4317387 -3 20 C-1.71614825 23.85155526 -2.70809863 25.19606819 -4 29 C-4.04125 30.2375 -4.0825 31.475 -4.125 32.75 C-4.73697634 38.63177261 -8.9574537 42.96462134 -13 47 C-17.68532882 50.29357485 -20.38870259 50.62347749 -26 50 C-28.96858157 47.79259319 -29.82865791 46.51402627 -31 43 C-32.32993989 30.13758134 -28.57613731 19.09966356 -21.4296875 8.4765625 C-20.95789063 7.98929688 -20.48609375 7.50203125 -20 7 C-19.01 7 -18.02 7 -17 7 C-14.54071438 5.49205431 -14.54071438 5.49205431 -12 3.5625 C-5.04014116 -1.56418174 -5.04014116 -1.56418174 0 0 Z " fill="#6B8087" transform="translate(930,983)"/>
<path d="M0 0 C0.33 0 0.66 0 1 0 C1.97238583 20.31205955 -5.86631916 37.90357513 -19 53 C-19.63550781 53.73605469 -20.27101563 54.47210937 -20.92578125 55.23046875 C-27.53238888 62.31807137 -36.78432842 69.8413329 -46 73 C-43.01239175 68.84677186 -39.95488041 64.90651368 -36.4375 61.1875 C-21.10364825 44.14988694 -8.15608266 21.43533283 0 0 Z " fill="#677C84" transform="translate(1094,657)"/>
<path d="M0 0 C2.04265788 1.89833966 2.98430324 2.95879601 4 5.625 C4.495 6.800625 4.495 6.800625 5 8 C5.99 8.33 6.98 8.66 8 9 C10.66928174 14.33856348 8.73321138 21.4742965 7.375 27 C7.20186279 27.7233252 7.02872559 28.44665039 6.8503418 29.19189453 C4.88149978 37.04174844 1.98326639 44.49134798 -1 52 C-2.33333333 55 -2.33333333 55 -1 58 C-3.3125 57.4375 -3.3125 57.4375 -6 56 C-10.58423716 47.20440622 -10.41239888 37.49968965 -7.72265625 28.09765625 C-4.3858995 17.58451529 -4.3858995 17.58451529 -1.84375 12.84375 C-0.6903293 10.32331218 -0.57171178 8.00396494 -0.375 5.25 C-0.30023437 4.26515625 -0.22546875 3.2803125 -0.1484375 2.265625 C-0.09945312 1.51796875 -0.05046875 0.7703125 0 0 Z " fill="#70848B" transform="translate(938,978)"/>
<path d="M0 0 C0.33 0 0.66 0 1 0 C1.71504433 11.08318719 -2.86782669 19.14695227 -8.18164062 28.55908203 C-11.69256439 34.88923023 -13.27564491 40.63122193 -13.125 47.9375 C-13.09792969 49.65259766 -13.09792969 49.65259766 -13.0703125 51.40234375 C-13.04710937 52.25957031 -13.02390625 53.11679688 -13 54 C-20.57324321 50.0677391 -23.90192311 45.90009607 -27 38 C-29.64 41.63 -32.28 45.26 -35 49 C-36 46 -36 46 -34.59375 42.69921875 C-33.90536252 41.35704885 -33.20675485 40.02008957 -32.5 38.6875 C-32.13632324 37.97907959 -31.77264648 37.27065918 -31.39794922 36.54077148 C-29.93565942 33.69397325 -28.45173062 30.85884063 -26.96191406 28.02636719 C-23.34133318 21.12609261 -20.20624112 14.77355386 -19 7 C-16.73392471 8.76981078 -16.05213569 9.63673196 -15.63671875 12.53125 C-15.75664257 19.54218085 -16.48975887 26.14997772 -18 33 C-18.66 33 -19.32 33 -20 33 C-20.66 31.68 -21.32 30.36 -22 29 C-22.40303244 35.44851898 -21.69090653 40.10070492 -19 46 C-18.34 46.66 -17.68 47.32 -17 48 C-17.33 47.401875 -17.66 46.80375 -18 46.1875 C-19 44 -19 44 -19 41 C-18.01 40.505 -18.01 40.505 -17 40 C-14.98688552 33.23991187 -14.82011201 26.12804557 -14.8125 19.125 C-14.8112915 18.05572266 -14.8112915 18.05572266 -14.81005859 16.96484375 C-14.8531534 12.88137172 -15.21502564 9.00650915 -16 5 C-12.0433962 8.24891857 -11.35201356 10.7332203 -10.75 15.75 C-10.60046875 16.92046875 -10.4509375 18.0909375 -10.296875 19.296875 C-10.19890625 20.18890625 -10.1009375 21.0809375 -10 22 C-8.70326398 19.46080994 -7.41252163 16.91885762 -6.125 14.375 C-5.76019531 13.66214844 -5.39539063 12.94929687 -5.01953125 12.21484375 C-2.99999073 8.21248163 -1.2918889 4.31082927 0 0 Z " fill="#F2F4F4" transform="translate(826,982)"/>
<path d="M0 0 C0.33 0.99 0.66 1.98 1 3 C-0.98 4.65 -2.96 6.3 -5 8 C-4.34 8.33 -3.68 8.66 -3 9 C-3.33 9.99 -3.66 10.98 -4 12 C-4.99 12.33 -5.98 12.66 -7 13 C-8.06384832 15.60841989 -8.06384832 15.60841989 -8.7890625 18.828125 C-9.09070312 20.02050781 -9.39234375 21.21289062 -9.703125 22.44140625 C-10.15945313 24.32666016 -10.15945313 24.32666016 -10.625 26.25 C-10.93695312 27.49136719 -11.24890625 28.73273437 -11.5703125 30.01171875 C-12.81384782 34.99122008 -14.02954725 39.95926474 -15 45 C-15.66 45 -16.32 45 -17 45 C-17.83726644 33.42711716 -15.47217298 23.93734489 -12 13 C-14.22183683 15.13749664 -15.54706934 16.80927025 -16.6875 19.6875 C-17.120625 20.780625 -17.55375 21.87375 -18 23 C-18.33 23 -18.66 23 -19 23 C-19.14285714 15.57142857 -19.14285714 15.57142857 -18 12 C-18.99 12 -19.98 12 -21 12 C-21.144375 13.051875 -21.28875 14.10375 -21.4375 15.1875 C-22 19 -22 19 -22.5234375 21.140625 C-23.2137467 25.2824802 -23.18430752 29.37077607 -23.1875 33.5625 C-23.19974609 34.41263672 -23.21199219 35.26277344 -23.22460938 36.13867188 C-23.22654297 36.96044922 -23.22847656 37.78222656 -23.23046875 38.62890625 C-23.23457764 39.37213135 -23.23868652 40.11535645 -23.24291992 40.88110352 C-22.96733278 43.28494353 -22.19207471 44.91143314 -21 47 C-21.495 45.515 -21.495 45.515 -22 44 C-22.03954234 41.66700175 -22.04401732 39.33291811 -22 37 C-21.34 37 -20.68 37 -20 37 C-19.71125 38.216875 -19.4225 39.43375 -19.125 40.6875 C-17.95276016 45.48730925 -17.95276016 45.48730925 -16 50 C-13.95894361 50.88693303 -13.95894361 50.88693303 -12 51 C-12.78375 51.144375 -13.5675 51.28875 -14.375 51.4375 C-16.96421018 51.87798925 -16.96421018 51.87798925 -19 53 C-23.54538809 49.6667154 -26.83003297 46.72202364 -28 41 C-28.8015476 30.54171229 -27.62221361 20.83172266 -24 11 C-24.66 10.67 -25.32 10.34 -26 10 C-22.99382731 6.99382731 -20.17618402 7.40414684 -16 7 C-16.66 5.68 -17.32 4.36 -18 3 C-17.03578125 2.95101562 -16.0715625 2.90203125 -15.078125 2.8515625 C-13.81484375 2.77679687 -12.5515625 2.70203125 -11.25 2.625 C-9.99703125 2.55539062 -8.7440625 2.48578125 -7.453125 2.4140625 C-4.39001879 2.04676696 -2.58025734 1.60288714 0 0 Z " fill="#EFF1F1" transform="translate(1040,983)"/>
<path d="M0 0 C4.49023631 4.14483352 5.88425624 6.11403242 6.12597656 12.14111328 C6.13081055 13.35524902 6.13564453 14.56938477 6.140625 15.8203125 C6.1589687 17.17449577 6.17854044 18.52866286 6.19921875 19.8828125 C6.22800893 21.99571903 6.24999594 24.10758861 6.25048828 26.22070312 C6.26523669 35.17931042 6.97783352 42.33349975 12 50 C11.84660156 49.38640625 11.69320312 48.7728125 11.53515625 48.140625 C11.0234375 46.09375 10.51171875 44.046875 10 42 C10.66 42 11.32 42 12 42 C13.49467818 34.44653705 14.19377508 27.18540028 14.1875 19.5 C14.18814453 18.73510254 14.18878906 17.97020508 14.18945312 17.18212891 C14.15214771 13.33882322 13.92654435 9.73582682 13 6 C15.87648998 8.59811998 17.34542646 10.18165434 18 14 C18.06624507 15.74886981 18.08552595 17.50002748 18.0625 19.25 C18.05347656 20.14203125 18.04445313 21.0340625 18.03515625 21.953125 C18.02355469 22.62859375 18.01195312 23.3040625 18 24 C18.66 24 19.32 24 20 24 C20.3403125 22.8553125 20.3403125 22.8553125 20.6875 21.6875 C22.16304598 17.54191843 23.97841887 13.62778456 25.82421875 9.63671875 C27.08474773 6.8099511 28.11798777 3.96676839 29 1 C29.33 1 29.66 1 30 1 C30.68765937 10.14968998 28.36952679 15.71269582 24.0234375 23.58203125 C18.02140148 34.48820339 15.57875541 42.47967461 16 55 C8.08712888 50.53632911 4.83294648 46.49883945 2 38 C1.85857436 35.46326863 1.76690336 32.94872805 1.71875 30.41015625 C1.70034058 29.66922226 1.68193115 28.92828827 1.66296387 28.16490173 C1.60427411 25.79751435 1.55144246 23.43005528 1.5 21.0625 C1.43219968 17.94907124 1.35850174 14.83586321 1.28125 11.72265625 C1.26767456 11.00900406 1.25409912 10.29535187 1.2401123 9.56007385 C1.15748935 6.24517634 1.00906111 3.17374229 0 0 Z " fill="#F2F3F4" transform="translate(769,981)"/>
<path d="M0 0 C2.7972908 2.06756277 3.02692273 3.14440371 3.6875 6.6875 C3.790625 7.780625 3.89375 8.87375 4 10 C4.66 10 5.32 10 6 10 C4.19746992 17.9826332 0.73083851 24.46586319 -3.33154297 31.48974609 C-5.88077071 35.90590543 -8.09461189 40.26786835 -10 45 C-10.33 45 -10.66 45 -11 45 C-11.33 47.97 -11.66 50.94 -12 54 C-13.65 54 -15.3 54 -17 54 C-17.61669034 40.91246047 -14.86720222 31.77817921 -8.22485352 20.65722656 C-5.17061474 15.52953241 -2.96893518 10.72504049 -2.5 4.6875 C-2.335 3.470625 -2.17 2.25375 -2 1 C-1.34 0.67 -0.68 0.34 0 0 Z " fill="#809298" transform="translate(801,983)"/>
<path d="M0 0 C2 1 2 1 2.61328125 2.7421875 C3.96082377 10.60965797 2.86564156 18.32088608 1 26 C1.66 26 2.32 26 3 26 C3.33 18.41 3.66 10.82 4 3 C8.76460985 7.76460985 9.11728327 11.82349811 9.125 18.375 C9.08375 20.23125 9.0425 22.0875 9 24 C9.33 20.04 9.66 16.08 10 12 C10.66 12.33 11.32 12.66 12 13 C12 17.95 12 22.9 12 28 C13.65 27.67 15.3 27.34 17 27 C15 30 15 30 12 31 C10.44578271 31.08106686 8.88832973 31.10756898 7.33203125 31.09765625 C6.43935547 31.09443359 5.54667969 31.09121094 4.62695312 31.08789062 C3.23379883 31.07532227 3.23379883 31.07532227 1.8125 31.0625 C0.87212891 31.05798828 -0.06824219 31.05347656 -1.03710938 31.04882812 C-3.35813712 31.03704626 -5.67903644 31.02059558 -8 31 C-7.78730469 31.76957031 -7.57460938 32.53914062 -7.35546875 33.33203125 C-7.23816406 34.21246094 -7.12085938 35.09289062 -7 36 C-9.3125 38.6875 -9.3125 38.6875 -12 41 C-12.66 41.66 -13.32 42.32 -14 43 C-14.97816094 39.99027404 -15.3850322 37.88125905 -14.09375 34.92578125 C-11.91193013 31.32710884 -9.79860136 28.02592073 -6 26 C-5.01 26 -4.02 26 -3 26 C-1.36822681 17.35001785 -0.49389188 8.78607656 0 0 Z " fill="#EEF0F1" transform="translate(1024,953)"/>
<path d="M0 0 C4.43041256 2.13609177 7.16159481 4.40398702 9 9 C10.04545568 15.06364292 8.94354773 19.37487998 5.4453125 24.40234375 C3.54715953 26.5005723 1.74320317 27.37298213 -1 28 C-0.566875 27.55011719 -0.13375 27.10023438 0.3125 26.63671875 C4.56147056 21.72876433 5.91880996 18.01345941 5.51171875 11.5 C5.1002806 8.74583392 5.1002806 8.74583392 3 5.8125 C-0.85377284 3.48417891 -3.68975624 2.95804542 -8 4 C-17.13813227 7.88405931 -22.42844051 13.92672449 -26.375 22.875 C-28.09015479 28.01325784 -28.41842976 32.94082764 -28.5 38.3125 C-28.51853027 39.07739746 -28.53706055 39.84229492 -28.55615234 40.63037109 C-28.49747889 45.89142454 -27.34874777 48.77033164 -24 53 C-23.34 53.99 -22.68 54.98 -22 56 C-26.44044513 54.64319732 -28.45164515 52.86646942 -31 49 C-34.75355818 39.50174883 -33.91556875 29.24843203 -30.3203125 19.8203125 C-24.2014624 6.74986939 -14.79508956 -1.50458538 0 0 Z " fill="#F2F4F5" transform="translate(1128,980)"/>
<path d="M0 0 C4.90546929 1.92714865 7.16276127 5.74414191 10 10 C10.33 10 10.66 10 11 10 C11.22256188 20.90553195 10.93915661 31.23075524 9 42 C8.01 41.67 7.02 41.34 6 41 C6.30035156 41.55429687 6.60070312 42.10859375 6.91015625 42.6796875 C7.29042969 43.40414063 7.67070313 44.12859375 8.0625 44.875 C8.44535156 45.59429688 8.82820312 46.31359375 9.22265625 47.0546875 C9.47917969 47.69664063 9.73570312 48.33859375 10 49 C9.67 49.66 9.34 50.32 9 51 C3.240085 44.44561397 1.5593724 38.76531641 1.5234375 30.29296875 C1.50785797 29.48636307 1.49227844 28.67975739 1.47622681 27.84870911 C1.42903898 25.29498137 1.40103932 22.7415232 1.375 20.1875 C1.33847785 17.61581216 1.29790148 15.04427622 1.25234985 12.47273254 C1.22516968 10.87800541 1.20379821 9.28316653 1.18881226 7.6882782 C1.21637504 3.71439752 1.21637504 3.71439752 0 0 Z " fill="#6D8189" transform="translate(773,982)"/>
<path d="M0 0 C0.33 0 0.66 0 1 0 C1.33643576 5.4951174 0.61021543 9.13959885 -2 14 C-4.25 16.5 -4.25 16.5 -7 19 C-14.98957046 26.27140682 -17.95679303 33.2788332 -21.0703125 43.55859375 C-22 46 -22 46 -24 47 C-25.09754319 38.32127886 -22.75163707 30.72423709 -20.22216797 22.52661133 C-19.02999809 18.65653973 -18.01723201 15.14924418 -17.55078125 11.109375 C-16.89953478 7.43283462 -15.9731581 6.33695023 -13.125 4 C-12.42632813 3.401875 -11.72765625 2.80375 -11.0078125 2.1875 C-10.34523438 1.795625 -9.68265625 1.40375 -9 1 C-8.01 1.33 -7.02 1.66 -6 2 C-8.31 4.64 -10.62 7.28 -13 10 C-12.67 10.33 -12.34 10.66 -12 11 C-9.94603274 10.59070014 -9.94603274 10.59070014 -8 10 C-9.52708963 13.43595166 -11.59927045 16.11912454 -14 19 C-6.65796274 13.33614268 -3.03226592 8.72411704 0 0 Z " fill="#F0F2F3" transform="translate(1230,982)"/>
<path d="M0 0 C-1.06235849 10.11484981 -8.9789294 18.22587757 -15.23828125 25.84375 C-17.02707362 27.98052654 -17.02707362 27.98052654 -18.60546875 30.28125 C-19.29576172 31.13203125 -19.29576172 31.13203125 -20 32 C-20.66 32 -21.32 32 -22 32 C-21.66773546 22.03206375 -17.90990764 13.62119272 -10.9375 6.4375 C-3.93788981 0 -3.93788981 0 0 0 Z " fill="#677C84" transform="translate(933,985)"/>
<path d="M0 0 C0.99 0 1.98 0 3 0 C3 2.97 3 5.94 3 9 C4.32 6.36 5.64 3.72 7 1 C7.66 1 8.32 1 9 1 C7.27698574 11.13645621 7.27698574 11.13645621 5.9375 15.3125 C4.46130038 21.11888516 4.31452634 27.03227649 4 33 C4.66 33.33 5.32 33.66 6 34 C4.515 34.495 4.515 34.495 3 35 C0.90649311 31.5980513 0.82057837 28.94727588 1 25 C0.34 25 -0.32 25 -1 25 C-0.34 28.96 0.32 32.92 1 37 C-4.17710891 31.82289109 -3.23356286 26.38752344 -3.25976562 19.49291992 C-3.19244585 12.67614556 -2.17431337 6.48411308 0 0 Z " fill="#697E85" transform="translate(1019,995)"/>
<path d="M0 0 C-0.94359375 0.49306641 -0.94359375 0.49306641 -1.90625 0.99609375 C-12.54288005 6.90711256 -18.93866753 14.49579644 -23 26 C-23.98140138 29.82133161 -24.10577785 33.37421528 -24.0625 37.3125 C-24.04896484 38.91544922 -24.04896484 38.91544922 -24.03515625 40.55078125 C-24.02355469 41.35902344 -24.01195312 42.16726563 -24 43 C-23.21625 43.144375 -22.4325 43.28875 -21.625 43.4375 C-19 44 -19 44 -17 45 C-19.28288669 47.11378397 -20.39672243 48 -23.5625 48 C-26.83975937 46.65548334 -27.44825835 45.14315851 -29 42 C-30.79337951 30.8681218 -27.11891666 19.95977046 -20.62890625 10.96484375 C-15.91697025 5.28114157 -7.87531539 -2.67167019 0 0 Z " fill="#F2F3F4" transform="translate(930,983)"/>
<path d="M0 0 C0.33 0 0.66 0 1 0 C1.78281159 12.00311105 -3.6124671 22.32119706 -11.3125 31.1875 C-15.18565008 35.3530859 -19.27960404 38.83591988 -24 42 C-24.66 41.67 -25.32 41.34 -26 41 C-25.23816406 40.1028125 -24.47632813 39.205625 -23.69140625 38.28125 C-16.27362542 29.38015419 -10.29413582 20.29539268 -5 10 C-4.17628906 8.40091797 -4.17628906 8.40091797 -3.3359375 6.76953125 C-2.20149651 4.52283108 -1.08606838 2.27037411 0 0 Z " fill="#6B8087" transform="translate(946,652)"/>
<path d="M0 0 C3.24460102 2.67679584 3.90757445 4.27379924 4.4375 8.4375 C3.56873958 15.51169198 0.30734419 19.11069803 -5.00390625 23.515625 C-7.26921931 25.20020223 -9.23436901 26.36785577 -12 27 C-12.99 26.67 -13.98 26.34 -15 26 C-14.40832031 25.63648438 -13.81664062 25.27296875 -13.20703125 24.8984375 C-8.23722946 21.73657339 -4.24101894 18.96281025 -1 14 C-0.32700274 10.89385881 0 8.16243471 0 5 C-5.88604466 4.24859004 -9.05354561 5.70420731 -13.84375 9.1328125 C-17.16280985 12.00692592 -19.62366245 15.32832551 -22 19 C-23 16 -23 16 -22.1015625 13.73046875 C-17.11445205 5.14155631 -10.63545528 -1.98288149 0 0 Z " fill="#F1F3F4" transform="translate(1128,985)"/>
<path d="M0 0 C2.73876092 2.73876092 2.36382947 4.35229905 2.4375 8.1875 C2.38525443 13.87065687 1.49187555 18.11121486 -0.5 23.5 C-4.13842097 33.40516304 -4.21149608 42.96407475 -1 53 C-5.17909649 49.15083218 -7.4680582 46.20188046 -8.40625 40.5546875 C-8.67905856 32.75690942 -6.76035413 26.32252855 -4.28857422 19.03344727 C-2.16873563 12.75536664 -0.76358377 6.59578398 0 0 Z " fill="#F1F3F4" transform="translate(1203,980)"/>
<path d="M0 0 C0.66 0.33 1.32 0.66 2 1 C1 4 1 4 -1.375 6.3125 C-4.05674473 9.05809579 -5.45923438 11.51300413 -7 15 C-6.34 15.33 -5.68 15.66 -5 16 C-5.99 16.66 -6.98 17.32 -8 18 C-9.25133806 21.2520239 -9.19863816 24.60841638 -9.25 28.0625 C-9.27578125 29.10535156 -9.3015625 30.14820313 -9.328125 31.22265625 C-9.23947394 34.00511132 -9.23947394 34.00511132 -7.62109375 35.796875 C-5.83281395 37.12408025 -4.02995648 38.09001951 -2 39 C-9.43335872 39.36557502 -9.43335872 39.36557502 -11.9375 37.75 C-15.35870508 32.11507399 -14.71958284 24.34124771 -13.38671875 18.15234375 C-11.13528289 11.10048959 -7.40092876 6.02683845 -2 1 C-1.34 0.67 -0.68 0.34 0 0 Z " fill="#F3F4F5" transform="translate(1120,992)"/>
<path d="M0 0 C0.33 0 0.66 0 1 0 C1.77909828 8.57008108 -1.0793715 16.88372495 -6.1875 23.75 C-16.51389141 35.94582434 -16.51389141 35.94582434 -23 37 C-22.125 35.83333333 -21.25 34.66666667 -20.375 33.5 C-19.82199219 32.7575 -19.26898437 32.015 -18.69921875 31.25 C-17.68049208 29.90106537 -16.6462138 28.5633713 -15.58203125 27.25 C-11.96688827 22.71334999 -9.09229379 17.85434353 -6.25 12.8125 C-5.86094482 12.12285156 -5.47188965 11.43320312 -5.07104492 10.72265625 C-3.12823945 7.21975125 -1.37748409 3.77342716 0 0 Z " fill="#6C8088" transform="translate(1132,556)"/>
<path d="M0 0 C2.7830294 2.38414381 2.98122435 2.7604836 3.2890625 6.6875 C3.12221356 10.89132609 2.3773737 14.92145923 1.375 19 C1.20258789 19.7211499 1.03017578 20.4422998 0.85253906 21.18530273 C-1.1137415 29.03083035 -3.97594408 36.51042152 -7 44 C-7.33 44 -7.66 44 -8 44 C-8.56051908 35.90248091 -6.93836056 29.14161143 -4.5625 21.4375 C-2.37954465 14.24887675 -0.55941722 7.50879732 0 0 Z " fill="#F4F5F6" transform="translate(944,986)"/>
<path d="M0 0 C0.66 0 1.32 0 2 0 C3.10064385 14.58353096 -6.01292818 29.10358692 -15 40 C-16.16544527 36.5036642 -15.88444532 36.13238088 -14.33984375 32.97265625 C-13.96085938 32.18592529 -13.581875 31.39919434 -13.19140625 30.58862305 C-12.77761719 29.75500244 -12.36382813 28.92138184 -11.9375 28.0625 C-11.525 27.21018799 -11.1125 26.35787598 -10.6875 25.47973633 C-8.86515869 21.72825371 -7.00921081 17.99587933 -5.09765625 14.2890625 C-4.57042969 13.26554688 -4.04320312 12.24203125 -3.5 11.1875 C-3.0359375 10.31480469 -2.571875 9.44210937 -2.09375 8.54296875 C-0.87112288 5.70036069 -0.39308934 3.05984319 0 0 Z " fill="#F3F4F5" transform="translate(834,991)"/>
<path d="M0 0 C0.33 0 0.66 0 1 0 C1.21105492 9.89613084 1.10084738 19.2648233 -1 29 C-1.99 29.33 -2.98 29.66 -4 30 C-3.69964844 30.55429687 -3.39929688 31.10859375 -3.08984375 31.6796875 C-2.70957031 32.40414063 -2.32929687 33.12859375 -1.9375 33.875 C-1.55464844 34.59429688 -1.17179688 35.31359375 -0.77734375 36.0546875 C-0.52082031 36.69664063 -0.26429688 37.33859375 0 38 C-0.33 38.66 -0.66 39.32 -1 40 C-6.73334882 33.81401837 -8.2079294 28.29825422 -8.265625 19.91796875 C-8 18 -8 18 -6 16 C-5.67 17.98 -5.34 19.96 -5 22 C-4.34 22 -3.68 22 -3 22 C-2.95101562 21.33355469 -2.90203125 20.66710937 -2.8515625 19.98046875 C-2.30335731 13.22242201 -1.32447857 6.64811086 0 0 Z " fill="#667C83" transform="translate(811,993)"/>
<path d="M0 0 C3.69267521 3.53212411 4.21401217 5.69184861 4.375 10.8125 C4.32299047 20.18461776 0.92529066 28.14264481 -4 36 C-5.37361675 31.57471994 -4.23312764 27.99798306 -3.125 23.625 C-1.22613524 15.708765 -0.26220627 8.15461486 0 0 Z " fill="#F3F4F5" transform="translate(938,978)"/>
<path d="M0 0 C3.74982583 1.70589561 5.60478508 3.61366167 8 7 C10.73690351 15.21071052 9.07951228 24.77478626 7 33 C6.34 33 5.68 33 5 33 C3.63946355 27.51324643 3.69585859 21.92345249 3.5703125 16.30078125 C3.34480264 10.42812877 2.13414868 5.47091232 0 0 Z " fill="#EDEFF0" transform="translate(773,982)"/>
<path d="M0 0 C2.8743961 2.74942235 3.92557481 4.09467871 4.26171875 8.18359375 C3.96264331 12.54473863 2.8202929 15.19674949 0.8125 19.0625 C0.22082031 20.22910156 -0.37085938 21.39570312 -0.98046875 22.59765625 C-3.06892126 26.11611299 -5.30300064 28.9396743 -8 32 C-9.01049372 29.3566963 -9.08128223 28.22637814 -8.109375 25.51953125 C-7.66078125 24.62621094 -7.2121875 23.73289062 -6.75 22.8125 C-3.12839849 15.24737685 -0.76068725 8.36755974 0 0 Z " fill="#EFF1F2" transform="translate(801,983)"/>
<path d="M0 0 C0.99 0.33 1.98 0.66 3 1 C1.70772838 9.67943622 -1.41265814 14.13600503 -8.3125 19.375 C-9.53642741 20.25731366 -10.76379926 21.13496623 -12 22 C-10.5140084 17.40693504 -8.14985318 14.56430755 -5 11 C-6.98 11.99 -8.96 12.98 -11 14 C-10.38517439 10.62225438 -9.14304154 8.52381697 -7.0625 5.8125 C-6.53785156 5.11769531 -6.01320313 4.42289063 -5.47265625 3.70703125 C-4 2 -4 2 -2 1 C-1.34 1.33 -0.68 1.66 0 2 C0 1.34 0 0.68 0 0 Z " fill="#6E8289" transform="translate(1227,981)"/>
<path d="M0 0 C2.19564419 1.7435998 2.93877537 2.71650336 3.5390625 5.49609375 C3.86845283 16.77022626 -1.57257686 24.89735657 -9 33 C-10.42431383 28.7270585 -8.50089375 26.05630717 -6.6875 22.1875 C-2.49043385 13.23391569 -2.49043385 13.23391569 -0.375 3.625 C-0.25125 2.42875 -0.1275 1.2325 0 0 Z " fill="#F3F4F5" transform="translate(829,983)"/>
<path d="M0 0 C3.54838877 3.43392461 5.16134626 5.28665917 5.375 10.25 C5.32264725 17.42232691 3.1271215 26.41882339 -1.66796875 31.91015625 C-2.32732422 32.44962891 -2.32732422 32.44962891 -3 33 C-2.57178868 27.80512051 -1.98608914 22.73408328 -0.9375 17.625 C0.2007901 11.73118684 0.1879288 5.98240007 0 0 Z " fill="#F8F9F9" transform="translate(1206,981)"/>
<path d="M0 0 C1.65 0 3.3 0 5 0 C6.06167446 2.61335251 6.26923709 4.33675742 5.19921875 6.97265625 C2.27637081 12.06621862 -0.61550934 14.66333424 -6 17 C-6.66 16.67 -7.32 16.34 -8 16 C-6.74809374 11.51400257 -5.20614467 8.40652872 -2 5 C-1.34 5 -0.68 5 0 5 C0 3.35 0 1.7 0 0 Z " fill="#ECEEEF" transform="translate(1121,991)"/>
<path d="M0 0 C0 0.99 0 1.98 0 3 C-3.56045177 4.18681726 -6.43808337 4.09689832 -10.1875 4.0625 C-11.45980469 4.05347656 -12.73210937 4.04445313 -14.04296875 4.03515625 C-15.50669922 4.01775391 -15.50669922 4.01775391 -17 4 C-15.16666667 7.16666667 -15.16666667 7.16666667 -12 9 C-12.75925781 9.04898438 -13.51851562 9.09796875 -14.30078125 9.1484375 C-15.29464844 9.22320313 -16.28851562 9.29796875 -17.3125 9.375 C-18.79169922 9.47941406 -18.79169922 9.47941406 -20.30078125 9.5859375 C-23.21528433 9.83865472 -23.21528433 9.83865472 -26 12 C-26 11.01 -26 10.02 -26 9 C-24.68 8.34 -23.36 7.68 -22 7 C-22 6.34 -22 5.68 -22 5 C-22.66 4.67 -23.32 4.34 -24 4 C-22.41046122 2.10117596 -21.54254738 1.09056075 -19.0546875 0.67529297 C-17.97574219 0.70840576 -17.97574219 0.70840576 -16.875 0.7421875 C-16.08609375 0.75636719 -15.2971875 0.77054688 -14.484375 0.78515625 C-13.66453125 0.81480469 -12.8446875 0.84445312 -12 0.875 C-10.37511093 0.91843257 -8.75010284 0.95766734 -7.125 0.9921875 C-6.40570312 1.01651855 -5.68640625 1.04084961 -4.9453125 1.06591797 C-2.7810135 1.08473681 -2.7810135 1.08473681 0 0 Z " fill="#6B7F87" transform="translate(1039,982)"/>
<path d="M0 0 C2.8100346 1.79363911 4.50940468 3.01880935 6 6 C6.12145993 7.83037287 6.17543185 9.66564133 6.1875 11.5 C6.20167969 12.4796875 6.21585938 13.459375 6.23046875 14.46875 C6 17 6 17 4 19 C3.34 19 2.68 19 2 19 C2.165 18.319375 2.33 17.63875 2.5 16.9375 C3.24152845 12.58102035 3.70646718 8.72201376 2 4.5625 C-0.53640553 2.58093318 -2.62581761 2.38657059 -5.8046875 2.5390625 C-10.39112223 3.50205058 -14.32512187 6.2572787 -17.54296875 9.60546875 C-19 11 -19 11 -22 12 C-20.59844241 8.66227007 -19.0490314 6.98250943 -16.125 4.875 C-15.44695312 4.37742187 -14.76890625 3.87984375 -14.0703125 3.3671875 C-9.47440404 0.33215361 -5.57593223 -0.92932204 0 0 Z " fill="#778A91" transform="translate(1128,983)"/>
<path d="M0 0 C4.96429611 1.24107403 7.13871828 2.76106412 10 7 C11.7565783 10.51315659 11.54245861 14.16621947 11 18 C9.24271032 22.29478681 7.31601608 25.29812476 3.1875 27.5 C2.1046875 27.7475 2.1046875 27.7475 1 28 C1.433125 27.55011719 1.86625 27.10023438 2.3125 26.63671875 C6.56930893 21.71971028 7.88770985 18.01381549 7.53515625 11.49609375 C6.74537896 7.81238801 5.01013156 6.15009397 2 4 C1.34 3.67 0.68 3.34 0 3 C0 2.01 0 1.02 0 0 Z " fill="#E3E7E8" transform="translate(1126,980)"/>
<path d="M0 0 C0.33 0.99 0.66 1.98 1 3 C-0.109375 5.12890625 -0.109375 5.12890625 -1.75 7.5625 C-7.26177626 16.41979627 -8.82337749 24.59694215 -8 35 C-7.67 35.99 -7.34 36.98 -7 38 C-8.485 38.495 -8.485 38.495 -10 39 C-13.41074701 28.76775898 -10.37616277 18.4308004 -6 9 C-4.17632849 5.84808062 -2.22082742 2.88478614 0 0 Z " fill="#73878E" transform="translate(910,990)"/>
<path d="M0 0 C0.33 0.99 0.66 1.98 1 3 C-1.34488245 5.94851556 -2.42333987 6.93035506 -6.234375 7.390625 C-7.39453125 7.34421875 -8.5546875 7.2978125 -9.75 7.25 C-10.92046875 7.21390625 -12.0909375 7.1778125 -13.296875 7.140625 C-14.18890625 7.09421875 -15.0809375 7.0478125 -16 7 C-16.66 5.68 -17.32 4.36 -18 3 C-17.03578125 2.95101562 -16.0715625 2.90203125 -15.078125 2.8515625 C-13.81484375 2.77679687 -12.5515625 2.70203125 -11.25 2.625 C-9.99703125 2.55539062 -8.7440625 2.48578125 -7.453125 2.4140625 C-4.39001879 2.04676696 -2.58025734 1.60288714 0 0 Z " fill="#F3F5F5" transform="translate(1040,983)"/>
<path d="M0 0 C0.804375 0.66 1.60875 1.32 2.4375 2 C6.43711344 4.66324971 10.33498744 4.75741901 15 4 C17.85248773 2.5578092 17.85248773 2.5578092 20 1 C20.66 1.33 21.32 1.66 22 2 C16.53130039 6.73953966 13.53077987 8.39635684 6 8 C2.61968411 6.81232145 2.06783183 6.10174775 0 3 C0 2.01 0 1.02 0 0 Z " fill="#F1F3F3" transform="translate(1103,1028)"/>
<path d="M0 0 C0 2.625 0 2.625 -1 6 C-3.46582388 8.31464229 -6.15854494 10.1747373 -9 12 C-9.33 11.34 -9.66 10.68 -10 10 C-9.109375 8.125 -9.109375 8.125 -7.75 6 C-7.31171875 5.29875 -6.8734375 4.5975 -6.421875 3.875 C-4.61600192 1.49362891 -3.09978433 0 0 0 Z " fill="#6C8088" transform="translate(1123,995)"/>
<path d="M0 0 C-0.33 1.32 -0.66 2.64 -1 4 C-1 3.34 -1 2.68 -1 2 C-7.0405092 5.93699407 -7.0405092 5.93699407 -12.8125 10.25 C-14.81422278 11.85137822 -16.66644521 12.96286454 -19 14 C-16.40924589 8.01627857 -11.03526229 3.66450226 -5.125 1.0625 C-2 0 -2 0 0 0 Z " fill="#EDF0F1" transform="translate(934,983)"/>
<path d="M0 0 C0.33 0 0.66 0 1 0 C0.87670164 5.91832126 -0.91924814 8.84890195 -4.953125 13.1328125 C-12.48117155 20 -12.48117155 20 -17 20 C-15.73762995 16.21288986 -14.64257307 16.05088728 -11.1875 14.25 C-6.26653926 11.44807958 -4.2621865 9.14133295 -2 4 C-1.34 4 -0.68 4 0 4 C0 2.68 0 1.36 0 0 Z " fill="#74878E" transform="translate(1128,992)"/>
<path d="M0 0 C0.66 0 1.32 0 2 0 C0.29543005 6.638122 -1.63585843 13.5726398 -6 19 C-8.16015625 19.74609375 -8.16015625 19.74609375 -10 20 C-6.66666667 13.33333333 -3.33333333 6.66666667 0 0 Z " fill="#75898F" transform="translate(805,993)"/>
<path d="M0 0 C0.66 0.33 1.32 0.66 2 1 C1.61328125 1.4846875 1.2265625 1.969375 0.828125 2.46875 C-2.77941954 7.11212416 -5.52402614 11.66713323 -8 17 C-8.99 16.67 -9.98 16.34 -11 16 C-9.04124347 9.73197909 -4.68161858 4.49994383 0 0 Z " fill="#ECEEEF" transform="translate(911,987)"/>
<path d="M0 0 C0.66 0 1.32 0 2 0 C2.433125 1.8253125 2.433125 1.8253125 2.875 3.6875 C4.04723984 8.48730925 4.04723984 8.48730925 6 13 C8.04105639 13.88693303 8.04105639 13.88693303 10 14 C7.36 14 4.72 14 2 14 C0.4087311 9.126739 -0.21192221 5.19209404 0 0 Z " fill="#DDE1E3" transform="translate(1018,1020)"/>
<path d="M0 0 C0.33 0 0.66 0 1 0 C1.0270817 2.72923388 1.04687847 5.45819637 1.0625 8.1875 C1.07087891 8.95642578 1.07925781 9.72535156 1.08789062 10.51757812 C1.10491934 14.48526789 0.98604115 18.12571234 0 22 C-0.99 21.34 -1.98 20.68 -3 20 C-2.01 13.4 -1.02 6.8 0 0 Z " fill="#89999F" transform="translate(811,993)"/>
<path d="M0 0 C0.33 0 0.66 0 1 0 C1.3125 2.25 1.3125 2.25 1 5 C-1.5 7.3125 -1.5 7.3125 -4 9 C-4.33 8.34 -4.66 7.68 -5 7 C-6.32 7.99 -7.64 8.98 -9 10 C-7.32288899 6.38776091 -5.66561115 2.83280557 -2 1 C-1.34 1.33 -0.68 1.66 0 2 C0 1.34 0 0.68 0 0 Z " fill="#75888F" transform="translate(1227,981)"/>
<path d="M0 0 C0.33 0 0.66 0 1 0 C1.0269501 2.93756119 1.04681474 5.87487555 1.0625 8.8125 C1.07087891 9.64587891 1.07925781 10.47925781 1.08789062 11.33789062 C1.09111328 12.14033203 1.09433594 12.94277344 1.09765625 13.76953125 C1.10289307 14.50792236 1.10812988 15.24631348 1.11352539 16.00708008 C1 18 1 18 0 21 C-0.99 21.33 -1.98 21.66 -3 22 C-2.505 17.545 -2.505 17.545 -2 13 C-1.67 13 -1.34 13 -1 13 C-0.67 8.71 -0.34 4.42 0 0 Z " fill="#7E9097" transform="translate(783,992)"/>
<path d="M0 0 C0.86625 0.37125 0.86625 0.37125 1.75 0.75 C1.75 2.75 1.75 2.75 -0.625 5.25 C-1.49125 6.075 -2.3575 6.9 -3.25 7.75 C-3.91 8.41 -4.57 9.07 -5.25 9.75 C-6 7 -6 7 -6.25 3.75 C-3.39285714 -0.37698413 -3.39285714 -0.37698413 0 0 Z " fill="#B6C0C4" transform="translate(1015.25,986.25)"/>
<path d="M0 0 C0.66 0.33 1.32 0.66 2 1 C2.05391993 2.79133978 2.09275571 4.58313899 2.125 6.375 C2.14820313 7.37273438 2.17140625 8.37046875 2.1953125 9.3984375 C2 12 2 12 0 14 C-0.66 14 -1.32 14 -2 14 C-1.34 9.38 -0.68 4.76 0 0 Z " fill="#6F838A" transform="translate(1132,988)"/>
<path d="M0 0 C-0.33 0.99 -0.66 1.98 -1 3 C-5.04362487 4.8380113 -7.73449853 5.25455926 -12 4 C-10.09824975 1.5699858 -9.07453827 1.01708169 -6 0.3125 C-3 0 -3 0 0 0 Z " fill="#A1AEB2" transform="translate(1123,1028)"/>
<path d="M0 0 C2 1 2 1 2.8515625 2.9609375 C3.10679688 3.75757813 3.36203125 4.55421875 3.625 5.375 C3.88539062 6.16648437 4.14578125 6.95796875 4.4140625 7.7734375 C5 10 5 10 5 13 C0.07692308 7.95384615 0.07692308 7.95384615 -0.3125 3.125 C-0.209375 2.09375 -0.10625 1.0625 0 0 Z " fill="#EFF1F2" transform="translate(1202,1023)"/>
<path d="M0 0 C2.17292709 2.17292709 2.41901583 3.03371008 3.0625 5.9375 C3.61181542 8.36629134 4.20959787 10.62879362 5 13 C1.125 11.25 1.125 11.25 0 9 C-0.06950541 7.45976004 -0.08452357 5.91665012 -0.0625 4.375 C-0.05347656 3.55773438 -0.04445313 2.74046875 -0.03515625 1.8984375 C-0.02355469 1.27195312 -0.01195312 0.64546875 0 0 Z " fill="#EFF1F2" transform="translate(932,1023)"/>
<path d="M0 0 C0.66 0.33 1.32 0.66 2 1 C1.34 4.63 0.68 8.26 0 12 C-0.66 11.67 -1.32 11.34 -2 11 C-1 3.57142857 -1 3.57142857 0 0 Z " fill="#87989E" transform="translate(936,989)"/>
<path d="M0 0 C-4.95 2.475 -4.95 2.475 -10 5 C-9.67 3.68 -9.34 2.36 -9 1 C-5.31975221 -1.08878929 -4.24507101 -1.06126775 0 0 Z " fill="#DFE4E5" transform="translate(930,983)"/>
<path d="M0 0 C0.33 0 0.66 0 1 0 C1.12117188 0.61488281 1.24234375 1.22976563 1.3671875 1.86328125 C1.53476563 2.67152344 1.70234375 3.47976563 1.875 4.3125 C2.03742188 5.11300781 2.19984375 5.91351562 2.3671875 6.73828125 C2.94478999 9.25301118 2.94478999 9.25301118 5 12 C4.01 12.495 4.01 12.495 3 13 C1 12 1 12 -0.1875 8.75 C-0.95061988 5.22790825 -1.0252106 3.38319499 0 0 Z " fill="#91A0A6" transform="translate(1201,1023)"/>
<path d="M0 0 C3.34998521 1.11666174 3.79340222 1.74694925 5.6875 4.5625 C6.12449219 5.20316406 6.56148437 5.84382813 7.01171875 6.50390625 C7.33785156 6.99761719 7.66398437 7.49132813 8 8 C4.11137013 6.73882275 2.10624401 5.54735833 0 2 C0 1.34 0 0.68 0 0 Z " fill="#EBEEEF" transform="translate(1098,1028)"/>
<path d="M0 0 C-0.33 1.32 -0.66 2.64 -1 4 C-1 3.34 -1 2.68 -1 2 C-1.7425 2.515625 -2.485 3.03125 -3.25 3.5625 C-6 5 -6 5 -8.171875 4.58984375 C-8.77515625 4.39519531 -9.3784375 4.20054687 -10 4 C-8.71086513 3.32845067 -7.41859796 2.66291141 -6.125 2 C-5.40570312 1.62875 -4.68640625 1.2575 -3.9453125 0.875 C-2 0 -2 0 0 0 Z " fill="#DEE3E4" transform="translate(934,983)"/>
<path d="M0 0 C0.66 0 1.32 0 2 0 C1.01 3.3 0.02 6.6 -1 10 C-1.66 9.67 -2.32 9.34 -3 9 C-2.01 6.03 -1.02 3.06 0 0 Z " fill="#7C8E95" transform="translate(805,993)"/>
<path d="M0 0 C1.5 1 1.5 1 3 3 C3.27345479 5.71846235 3.13491285 8.25677199 3 11 C0.39665076 8.28817788 0.00543309 7.10866187 -0.1875 3.25 C-0.125625 2.1775 -0.06375 1.105 0 0 Z " fill="#CBD2D4" transform="translate(944,986)"/>
<path d="M0 0 C0.66 0.66 1.32 1.32 2 2 C1.54545455 7.45454545 1.54545455 7.45454545 -1 10 C-2.31223496 6.06329512 -1.24296256 3.87511856 0 0 Z " fill="#85969C" transform="translate(1210,997)"/>
<path d="M0 0 C0.33 0 0.66 0 1 0 C0.38461538 6.52307692 0.38461538 6.52307692 -1.5625 8.9375 C-2.036875 9.288125 -2.51125 9.63875 -3 10 C-3.33 9.34 -3.66 8.68 -4 8 C-3.0625 5.875 -3.0625 5.875 -2 4 C-1.34 4 -0.68 4 0 4 C0 2.68 0 1.36 0 0 Z " fill="#84959B" transform="translate(1128,992)"/>
<path d="M0 0 C0.33 0 0.66 0 1 0 C1.3125 2.25 1.3125 2.25 1 5 C-1.5 7.3125 -1.5 7.3125 -4 9 C-2.80100302 5.9168649 -1.52299523 2.93720508 0 0 Z " fill="#F0F2F3" transform="translate(1227,981)"/>
</svg>
